<svg version="1.2" xmlns="http://www.w3.org/2000/svg" viewBox="0 0 750 500" width="750" height="500">
	<title>prueba-svg</title>
	<style>
		.s0 { fill: #62d0d0 } 
		.s1 { fill: #ffffff } 
		.s2 { fill: #ffbe9d } 
		.s3 { fill: #263238 } 
		.s4 { fill: #455a64 } 
		.s5 { fill: #e0e0e0 } 
		.s6 { fill: #fafafa } 
		.s7 { fill: #000000 } 
		.s8 { fill: #eb996e } 
	</style>
	<g id="freepik--Character--inject-9">
		<path id="Layer" class="s0" d="m443.1 321.2c-8.5 11.9-18.3 23.3-30.8 30.8-12.6 7.5-28.4 10.5-42 5.1-5.7-2.3-10.8-6-16.7-7.3-5.4-1.2-11-0.4-16.5-0.2-5.5 0.3-11.4-0.1-15.9-3.3-4.6-3.1-7-9.8-3.9-14.4 3.5-5 11.7-5.2 14.6-10.6 2.2-4.3 0-9.3-0.6-14.1-1.3-10.5 7.4-21.3 18-22.2 9-0.8 18.8 4.5 26.8 0.3 5.2-2.7 7.8-8.6 11.6-13.2 9.7-11.4 29.2-12.6 40.2-2.4"/>
		<g id="Layer" style="opacity: .8">
			<path id="Layer" class="s1" d="m443.1 321.2c-8.5 11.9-18.3 23.3-30.8 30.8-12.6 7.5-28.4 10.5-42 5.1-5.7-2.3-10.8-6-16.7-7.3-5.4-1.2-11-0.4-16.5-0.2-5.5 0.3-11.4-0.1-15.9-3.3-4.6-3.1-7-9.8-3.9-14.4 3.5-5 11.7-5.2 14.6-10.6 2.2-4.3 0-9.3-0.6-14.1-1.3-10.5 7.4-21.3 18-22.2 9-0.8 18.8 4.5 26.8 0.3 5.2-2.7 7.8-8.6 11.6-13.2 9.7-11.4 29.2-12.6 40.2-2.4"/>
		</g>
		<path id="Layer" class="s0" d="m431.9 316.8c-15.5 18.3-44 24-65.3 13.2-6.2-3.2-12.1-8-13.9-14.7-1.7-6.7 2.4-15.1 9.3-15.6 5.2-0.4 10.1 3.5 15.2 2.8 7.6-1 10.3-10.4 14.9-16.5 7.5-10 24.1-11.2 33.1-2.5"/>
		<path id="Layer" class="s2" d="m628.9 305.9l-11.5-16.4 15-10.7 10.6 21.4-13.4 5.6"/>
		<path id="Layer" class="s0" d="m642.3 297.3l8.2 14.8c0 0 17.8-3.4 19.6-0.8l-28.1 16.9-13.7-22.5z"/>
		<g id="Layer" style="opacity: .6">
			<path id="Layer" class="s1" d="m641 316.2q0.2-0.2 0.4-0.3 0.3-0.2 0.5-0.2 0.3 0 0.5 0.1 0.3 0 0.5 0.2 0.1 0.2 0.2 0.4 0.1 0.3 0.1 0.5 0 0.3-0.1 0.5-0.1 0.3-0.2 0.5-0.2 0.1-0.4 0.2-0.3 0.1-0.5 0.1-0.3 0-0.5-0.1-0.2-0.1-0.4-0.2-0.2-0.2-0.3-0.4 0-0.3 0-0.5 0-0.3 0-0.5 0.1-0.2 0.3-0.4"/>
		</g>
		<g id="Layer" style="opacity: .6">
			<path id="Layer" class="s1" d="m642 328.2l-1.3-2.3 27.4-15.3c0 0 1.6-0.3 2 0.7z"/>
		</g>
		<path id="Layer" class="s3" d="m650.9 311.7c0.1 0.1-0.6 0.6-1 1.4-0.4 0.9-0.4 1.7-0.6 1.7-0.1 0-0.4-0.9 0.1-1.9 0.5-1 1.4-1.4 1.5-1.2z"/>
		<path id="Layer" class="s3" d="m654.6 311.1c0.1 0.1-0.4 0.7-0.5 1.6-0.1 0.8 0.1 1.5 0 1.6-0.1 0.1-0.7-0.6-0.5-1.7 0.1-1.1 0.9-1.6 1-1.5z"/>
		<path id="Layer" class="s3" d="m658.4 313.6c-0.1 0.1-0.8-0.4-0.8-1.4-0.1-1 0.3-1.7 0.4-1.6 0.2 0.1 0 0.8 0.1 1.5 0.1 0.8 0.4 1.4 0.3 1.5z"/>
		<path id="Layer" class="s3" d="m648.6 308.5c0 0.2-0.7 0.4-1.4 0.9-0.8 0.5-1.2 1.1-1.4 1-0.1-0.1 0.2-0.9 1-1.5 0.9-0.6 1.8-0.5 1.8-0.4z"/>
		<path id="Layer" class="s3" d="m646.9 305.6c0 0-0.4 0.4-1.4 0.8q-0.3 0.1-0.7 0.2-0.3 0.1-0.7 0.2-0.3 0-0.7 0.1-0.3 0-0.7 0-0.1 0-0.1 0-0.1 0-0.2 0-0.1 0-0.1-0.1-0.1 0-0.2 0-0.1 0-0.2-0.1-0.1-0.1-0.2-0.1 0-0.1-0.1-0.3 0-0.1 0-0.2 0-0.1 0-0.2 0.1-0.1 0.1-0.2 0.1-0.1 0.1-0.1 0.1-0.1 0.2-0.2 0.1 0 0.1 0 0.1-0.1 0.2-0.1 0.1 0 0.1-0.1 0.1 0 0.2 0 0.1 0 0.2-0.1 0.1 0 0.3 0 0.1-0.1 0.2-0.1 0.2 0 0.3 0 0.2-0.1 0.4-0.1 0.3 0 0.5 0 0.2 0 0.4 0.1 0.3 0 0.5 0c1 0.2 1.5 0.6 1.5 0.7 0 0-0.6-0.2-1.6-0.3q-0.2 0-0.4 0-0.2 0-0.4 0-0.2 0-0.4 0-0.2 0-0.4 0.1-0.2 0-0.3 0-0.1 0-0.3 0.1-0.1 0-0.2 0-0.1 0.1-0.2 0.1c-0.4 0.1-0.6 0.3-0.6 0.4 0 0.2 0 0.1 0.1 0.2q0 0 0.1 0 0.1 0 0.1 0 0.1 0 0.1 0 0.1 0 0.1 0 0.6 0 1 0 0.3 0 0.5-0.1 0.2 0 0.4 0 0.2-0.1 0.4-0.1 0.2-0.1 0.4-0.1 0.2-0.1 0.4-0.1 0.2-0.1 0.4-0.2 0.2 0 0.4-0.1 0.2 0 0.4-0.1z"/>
		<path id="Layer" class="s3" d="m646.9 305.9c0 0-0.6-0.3-1.2-1.2q-0.1-0.2-0.2-0.4-0.2-0.2-0.2-0.4-0.1-0.2-0.2-0.4-0.1-0.2-0.1-0.4-0.1-0.2-0.1-0.3 0-0.1 0-0.3-0.1-0.1-0.1-0.2 0-0.2 0-0.3 0-0.2 0-0.3 0-0.2 0.1-0.4 0-0.2 0.1-0.3 0.1-0.1 0.3-0.2 0.1-0.1 0.2-0.1 0.1-0.1 0.2-0.1 0.1 0 0.2 0.1 0.1 0 0.2 0.1 0.1 0 0.1 0 0.1 0.1 0.1 0.1 0.1 0.1 0.1 0.2 0.1 0 0.2 0.1 0 0.1 0.1 0.2 0.1 0.1 0.2 0.2 0 0.1 0.1 0.3 0.1 0.1 0.1 0.2 0.1 0.2 0.2 0.5 0 0.2 0.1 0.4 0 0.2 0 0.5 0 0.2 0 0.4c-0.1 1-0.6 1.6-0.6 1.6q0-0.2 0-0.4 0.1-0.2 0.1-0.4 0-0.1 0.1-0.3 0-0.2 0-0.4 0-0.2 0-0.4 0-0.2-0.1-0.4 0-0.2-0.1-0.4-0.1-0.2-0.2-0.4 0-0.1-0.1-0.2 0-0.1-0.1-0.2 0-0.1-0.1-0.2-0.1-0.1-0.2-0.2c-0.2-0.3-0.5-0.4-0.5-0.3q-0.1 0-0.2 0.1 0 0.1 0 0.2-0.1 0.1-0.1 0.2 0 0.1 0 0.2 0 0.1 0.1 0.3 0 0.1 0 0.2 0 0.1 0 0.3 0 0.1 0.1 0.2 0 0.2 0.1 0.4 0 0.2 0.1 0.4 0.1 0.2 0.1 0.4 0.1 0.2 0.2 0.4c0.5 0.8 0.9 1.2 0.9 1.3z"/>
		<path id="Layer" class="s3" d="m608.6 222.7l33.1 68-19.7 13.4-35.9-56.5"/>
		<path id="Layer" class="s4" d="m589 235.2c0.1 0.1-0.9 2.4-1.4 5.4-0.6 3-0.3 5.6-0.5 5.6q-0.3-1.4-0.3-2.9 0-1.4 0.2-2.8 0.3-1.4 0.8-2.7 0.5-1.4 1.2-2.6z"/>
		<path id="Layer" class="s4" d="m585.3 235.4c0.2 0 0 2.5 0.4 5.5 0.4 3 1.2 5.3 1 5.3q-0.6-1.2-0.9-2.6-0.4-1.3-0.6-2.7-0.2-1.4-0.2-2.8 0.1-1.3 0.3-2.7z"/>
		<path id="Layer" class="s3" d="m468 314.2l-26.6 29.7c-47.9-24.6-49.8-66.2-20.1-104.1l24.6 7.6z"/>
		<path id="Layer" class="s5" d="m615.1 201.2c6.4-1.5 13-1.8 19.5-0.9 6.5 1 12.7 3.2 18.4 6.5 5.7 3.3 10.7 7.6 14.7 12.8 4.1 5.1 7.1 11 8.9 17.4 2 6.8 2.6 14 1.6 21.1-0.9 7-3.3 13.8-7 19.9-3.7 6.1-8.6 11.4-14.5 15.5-5.8 4.1-12.4 6.9-19.4 8.3l-169.6 33.9c-25.2-5.6-39-25.9-41.1-46.7-1.9-19 6-38.4 21.7-47.6z"/>
		<path id="Layer" class="s3" d="m448.4 241.4l1.5-0.4 4.7-1.1 17.8-4.4 65.6-15.9 45.3-11 25.3-6.1 6.5-1.6 3.4-0.6q0.8-0.2 1.7-0.3l1.7-0.2c1.2-0.1 2.3-0.2 3.5-0.3h3.5q0.4 0 0.8 0.1 0.5 0 0.9 0 0.5 0 0.9 0.1 0.4 0 0.9 0.1l1.7 0.2 0.9 0.1 0.9 0.1 3.5 0.7c1.1 0.3 2.3 0.7 3.4 1q0.9 0.3 1.7 0.6l1.7 0.7 1.7 0.6q0.2 0.1 0.4 0.2 0.2 0.1 0.4 0.2 0.2 0.1 0.4 0.2 0.2 0.1 0.4 0.2l3.3 1.7c1 0.6 2 1.3 3.1 2 0.5 0.3 1 0.6 1.5 1l1.4 1.1 1.5 1.2 0.7 0.5 0.7 0.7q2.8 2.5 5.3 5.4 2.4 2.9 4.4 6.2 1.9 3.2 3.4 6.7 1.5 3.5 2.5 7.2 1 3.8 1.4 7.7 0.4 3.9 0.2 7.9-0.2 3.9-1 7.7-0.8 3.9-2.1 7.6-1.5 3.8-3.4 7.3-2 3.5-4.5 6.7-2.5 3.2-5.5 6-3 2.7-6.3 5-1.4 1-2.9 1.8-1.5 0.9-3 1.6-1.6 0.8-3.2 1.5-1.6 0.6-3.2 1.2c-4.3 1.5-8.8 2.1-13.2 3.1l-26 5.1-49.6 10-87.2 17.4h-0.1q-1.6-0.4-3.3-0.9-1.6-0.4-3.2-1-1.6-0.6-3.2-1.3-1.6-0.6-3.1-1.4-2.9-1.4-5.5-3.2-2.6-1.7-5-3.8-2.4-2.1-4.5-4.5-2.2-2.3-4-5-0.8-1.1-1.5-2.4-0.8-1.2-1.5-2.5-0.6-1.3-1.3-2.6-0.6-1.3-1.1-2.6c-0.4-0.9-0.7-1.8-1-2.6q-0.2-0.4-0.3-0.7-0.1-0.3-0.2-0.6-0.1-0.3-0.2-0.7-0.1-0.3-0.2-0.6-0.4-1.3-0.7-2.6l-0.6-2.6q0-0.3-0.1-0.6-0.1-0.3-0.1-0.7-0.1-0.3-0.1-0.6-0.1-0.3-0.1-0.6-0.2-1.3-0.4-2.6c-0.1-0.8-0.1-1.6-0.1-2.4q-0.1-1.3-0.1-2.5-0.1-2.2 0-4.4 0.2-2.2 0.5-4.3 0.3-2.2 0.8-4.4 0.5-2.1 1.1-4.2 0.5-1.7 1.2-3.3 0.6-1.7 1.4-3.3 0.7-1.6 1.6-3.1 0.8-1.5 1.8-3 0.7-1.1 1.5-2.1 0.8-1 1.6-2 0.9-1 1.8-1.9 0.9-1 1.8-1.8c0.6-0.5 1-1 1.5-1.3l1.4-1.1 1.2-0.9 1-0.6 1.8-1.2-1.8 1.2-1 0.7-1.2 0.9-1.3 1c-0.5 0.4-0.9 0.9-1.5 1.3q-0.9 0.9-1.8 1.9-0.9 0.9-1.7 1.9-0.9 0.9-1.6 2-0.8 1-1.5 2.1-1 1.5-1.8 3-0.9 1.5-1.6 3.1-0.8 1.6-1.4 3.2-0.6 1.7-1.2 3.4-0.6 2.1-1.1 4.2-0.5 2.1-0.8 4.3-0.3 2.2-0.4 4.4-0.1 2.1-0.1 4.3c0 0.8 0 1.6 0.1 2.4 0.1 0.9 0.1 1.7 0.2 2.5q0.2 1.3 0.4 2.5 0 0.3 0.1 0.7 0 0.3 0.1 0.6 0 0.3 0.1 0.6 0 0.3 0.1 0.6 0.3 1.3 0.6 2.6c0.1 0.9 0.5 1.7 0.7 2.6q0.1 0.3 0.2 0.6 0.1 0.4 0.2 0.7 0.1 0.3 0.2 0.6 0.1 0.3 0.2 0.7c0.4 0.8 0.6 1.7 1 2.5q0.6 1.4 1.2 2.7 0.6 1.3 1.3 2.5 0.7 1.3 1.5 2.5 0.7 1.3 1.5 2.4 0.9 1.3 1.9 2.5 0.9 1.2 1.9 2.3 1 1.2 2.1 2.3 1.1 1.1 2.2 2.1 1.2 1 2.5 2 1.3 1 2.7 1.9 1.3 0.9 2.7 1.7 1.4 0.9 2.8 1.6 1.5 0.7 3.1 1.4 1.6 0.6 3.2 1.2 1.6 0.6 3.2 1.1 1.6 0.4 3.3 0.8h-0.1l87.2-17.5 49.6-9.9 26-5.2c4.4-1 8.9-1.6 13.1-3.1q1.7-0.6 3.2-1.2 1.6-0.7 3.1-1.4 1.5-0.8 3-1.6 1.5-0.9 2.9-1.8 3.3-2.3 6.2-5 3-2.7 5.5-5.9 2.4-3.1 4.4-6.6 2-3.5 3.4-7.3 1.3-3.7 2.1-7.5 0.8-3.8 1-7.7 0.1-3.9-0.3-7.8-0.4-3.8-1.3-7.6-1-3.6-2.5-7.1-1.4-3.5-3.4-6.7-1.9-3.2-4.3-6.1-2.4-2.9-5.2-5.4l-0.7-0.6-0.7-0.5-1.4-1.1-1.5-1.2c-0.5-0.3-1-0.6-1.5-1-1-0.6-2-1.3-3.1-1.9l-3.2-1.7q-0.2-0.1-0.4-0.2-0.2-0.1-0.4-0.2-0.2 0-0.4-0.1-0.2-0.1-0.4-0.2l-1.7-0.7-1.6-0.6q-0.9-0.3-1.7-0.6c-1.2-0.3-2.3-0.7-3.4-1l-3.5-0.7-0.9-0.1-0.8-0.1-1.8-0.2q-0.4-0.1-0.8-0.1-0.5-0.1-0.9-0.1-0.4 0-0.9 0-0.4-0.1-0.8-0.1h-3.5c-1.2 0.1-2.3 0.2-3.4 0.3l-1.7 0.2q-0.9 0.1-1.7 0.3l-3.3 0.6-6.6 1.5-25.3 6.1-45.3 10.9-65.6 15.7-17.9 4.3-4.7 1.1z"/>
		<path id="Layer" class="s0" d="m546.4 320c4.5 56.4-101 66.5-101 66.5l22.3-50.8z"/>
		<path id="Layer" class="s0" d="m448.4 241.4l-35.4-47.7c64.5-20.8 115.2 28.5 115.2 28.5z"/>
		<path id="Layer" class="s0" d="m720 228c0 0-12.9 52.9-74.6 71 10.5-19.9-2.8-82.5-24.6-98.5 0 0 54.6-14.1 99.2 27.5z"/>
		<path id="Layer" class="s4" d="m436 312.5c0.1 0-3.3 4.1-7.6 9-4.3 4.9-7.8 8.8-8 8.7-0.1-0.1 3.3-4.1 7.6-9 4.3-4.9 7.9-8.8 8-8.7z"/>
		<path id="Layer" class="s3" d="m720 227.9q0 0-0.4 0.7l-1.1 1.9-2 3.2q-0.5 0.9-1.2 2l-1.5 2.2c-1.1 1.5-2.3 3.3-3.6 5.1l-4.8 5.9c-0.8 1-1.8 2-2.8 3.1-1 1.1-1.9 2.2-3 3.2-2.2 2.1-4.5 4.4-7.1 6.5q-2.2 1.8-4.4 3.5-2.2 1.6-4.5 3.1-2.3 1.6-4.7 3-2.4 1.4-4.9 2.6-1.4 0.7-2.8 1.4-1.4 0.6-2.8 1.2-1.4 0.6-2.9 1.2-1.4 0.6-2.9 1.1c-2 0.7-4 1.3-6.1 2.1q-0.7 0.2-1.5 0.5-0.8 0.2-1.7 0.4-0.8 0.2-1.6 0.4-0.8 0.2-1.6 0.3c-17.5 3.9-36.8 7.9-57 12-40.5 8.4-77.1 15.9-103.7 21.2l-31.4 6.4-8.6 1.6-2.2 0.5q-0.7 0.1-0.7 0.1l0.7-0.2 2.2-0.5 8.6-1.7 31.4-6.5 103.6-21.3c20.2-4.2 39.5-8.2 57-12q0.8-0.2 1.6-0.4 0.8-0.2 1.6-0.4 0.8-0.2 1.6-0.4 0.8-0.2 1.6-0.5c2.1-0.7 4.1-1.3 6.1-2.1q1.4-0.5 2.9-1 1.4-0.6 2.8-1.2 1.4-0.6 2.8-1.2 1.4-0.7 2.8-1.4 2.5-1.2 4.9-2.6 2.4-1.4 4.7-2.9 2.3-1.5 4.5-3.2 2.2-1.6 4.3-3.4c2.7-2.1 5-4.3 7.2-6.4 1.1-1 2.1-2.2 3-3.2q1.5-1.6 2.9-3.1l4.7-5.8c1.4-1.8 2.6-3.6 3.7-5.1l1.5-2.2 1.3-2 1.9-3.1q0.8-1.3 1.2-1.9c0.3-0.5 0.4-0.7 0.4-0.7z"/>
		<path id="Layer" class="s3" d="m559.5 317.4q0 0-0.2-0.2l-0.5-0.6-1.8-2.4-1.4-1.7c-0.4-0.7-0.9-1.4-1.4-2.2-1-1.6-2.3-3.3-3.4-5.4l-1.8-3.2c-0.7-1.1-1.2-2.3-1.9-3.5-1.3-2.5-2.4-5.2-3.7-8q-1.9-4.7-3.4-9.5-1.5-4.9-2.6-9.8-1.1-5-1.8-10-0.7-5-0.9-10.1c-0.1-3.1-0.2-6-0.1-8.8 0.1-1.4 0-2.7 0.2-4 0.1-1.3 0.2-2.5 0.3-3.7 0.1-2.3 0.5-4.4 0.8-6.3 0.1-0.9 0.2-1.8 0.4-2.5q0.2-1.2 0.4-2.2 0.4-1.9 0.7-3 0.1-0.4 0.1-0.8c0.1-0.2 0.1-0.2 0.1-0.2q0 0 0 0.1 0 0 0 0 0 0.1 0 0.1 0 0 0 0.1c0 0.2-0.1 0.4-0.1 0.7l-0.6 3q-0.1 1-0.4 2.2c-0.1 0.7-0.2 1.6-0.3 2.6-0.2 1.8-0.6 3.9-0.7 6.2q-0.2 1.8-0.3 3.7c-0.1 1.3-0.1 2.6-0.1 4-0.2 2.8 0 5.7 0.1 8.8q0.2 5 0.9 10 0.7 5 1.8 10 1.1 4.9 2.6 9.7 1.5 4.8 3.4 9.5c1.2 2.8 2.3 5.6 3.6 8 0.6 1.2 1.2 2.4 1.8 3.6l1.8 3.2c1.1 2 2.4 3.8 3.3 5.4 0.5 0.7 1 1.5 1.4 2.1 0.5 0.7 0.9 1.3 1.3 1.8 0.8 1 1.3 1.9 1.8 2.5l0.4 0.6q0 0 0.1 0.1 0 0 0 0 0 0.1 0 0.1 0 0 0.1 0z"/>
		<path id="Layer" class="s0" d="m514.3 265q1.3 0.2 2.4 0.8 1.1 0.6 1.9 1.6 0.8 0.9 1.2 2.1c0.4 1 0.5 2 0.4 3-0.1 1-0.4 1.9-0.9 2.8-0.5 0.9-1.2 1.6-2 2.2-0.9 0.6-1.8 1-2.8 1.1-25.6 4.7-104.7 18.9-106.8 18.9-2.7-0.1-2.2-10.5-2.2-10.5l106.3-22q1.3-0.2 2.5 0z"/>
		<path id="Layer" class="s6" d="m618.7 255.2c0 13-11.4 23.6-25.5 23.6-14-0.1-25.4-10.6-25.3-23.7 0-13.1 11.3-23.6 25.4-23.6 14.1 0 25.4 10.6 25.4 23.7z"/>
		<path id="Layer" class="s3" d="m618.7 255.2q0-0.1 0-0.1 0-0.1 0-0.1 0-0.1 0-0.1 0-0.1 0-0.1c0-0.3-0.1-0.7-0.1-1.2q0-0.4-0.1-0.8 0-0.5-0.1-1-0.1-0.6-0.2-1.2c-0.1-0.4-0.3-0.9-0.4-1.3q-0.1-0.4-0.2-0.8-0.2-0.4-0.3-0.8-0.1-0.3-0.3-0.7-0.1-0.4-0.3-0.7-0.7-1.5-1.6-2.9-0.9-1.4-1.9-2.7-1.1-1.2-2.3-2.3-1.3-1.1-2.6-2.1-1.2-0.7-2.4-1.4-1.3-0.7-2.6-1.2-1.3-0.5-2.7-0.9-1.4-0.4-2.7-0.6-0.4-0.1-0.8-0.1-0.4-0.1-0.8-0.1-0.4-0.1-0.8-0.1-0.3 0-0.7 0c-0.6 0-1.1-0.1-1.6-0.1l-1.6 0.1h-0.8l-0.9 0.1-1.6 0.2-1.6 0.4-0.9 0.2-0.8 0.3q-1.7 0.5-3.3 1.3-1.6 0.8-3.1 1.8-1.5 1-2.8 2.2-1.3 1.2-2.5 2.6c-1.6 2-2.9 4.2-3.8 6.6-0.9 2.4-1.3 5-1.3 7.5 0 2.6 0.4 5.1 1.3 7.6 0.9 2.4 2.2 4.6 3.8 6.6q1.2 1.4 2.5 2.6 1.3 1.2 2.8 2.2 1.5 1 3.1 1.8 1.6 0.8 3.3 1.3l0.8 0.3 0.8 0.2 1.7 0.4 1.6 0.2 0.8 0.1h0.8l1.7 0.1q0.8 0 1.5 0 0.4-0.1 0.8-0.1 0.4 0 0.8 0 0.4-0.1 0.8-0.1 0.3-0.1 0.7-0.2 1.4-0.2 2.8-0.6 1.3-0.3 2.6-0.9 1.3-0.5 2.6-1.1 1.2-0.7 2.4-1.5 1.7-1.1 3.2-2.5 1.5-1.4 2.7-3.1 1.3-1.6 2.2-3.5 0.9-1.8 1.4-3.8c0.2-0.5 0.3-0.9 0.4-1.3q0.1-0.7 0.2-1.2 0.1-0.6 0.2-1c0-0.3 0-0.6 0-0.9q0.1-0.7 0.1-1.1 0-0.1 0-0.1 0.1-0.1 0.1-0.1 0-0.1 0-0.1 0-0.1 0-0.1 0 0 0 0.1 0 0 0 0.1 0 0 0 0.1 0 0 0 0.1v1.1q0 0.4 0 0.9c0 0.3-0.1 0.7-0.2 1 0 0.3-0.1 0.8-0.2 1.2 0 0.4-0.2 0.9-0.3 1.3q-0.1 0.4-0.2 0.8-0.1 0.4-0.3 0.8-0.1 0.4-0.3 0.8-0.1 0.3-0.3 0.7-0.2 0.5-0.4 0.9-0.2 0.4-0.4 0.8-0.3 0.5-0.5 0.9-0.3 0.4-0.5 0.8-0.7 1-1.4 1.9-0.8 0.9-1.6 1.8-0.9 0.8-1.8 1.6-0.9 0.7-1.9 1.4-1.1 0.8-2.4 1.5-1.3 0.7-2.6 1.2-1.3 0.5-2.7 0.9-1.4 0.4-2.8 0.6-0.4 0.1-0.8 0.2-0.4 0-0.8 0.1-0.4 0-0.8 0-0.4 0.1-0.8 0.1c-0.5 0-1 0-1.6 0h-1.6-0.8l-0.9-0.2-1.6-0.2-1.7-0.4-0.8-0.2-0.8-0.3q-1.8-0.5-3.4-1.3-1.7-0.8-3.2-1.8-1.5-1.1-2.9-2.3-1.3-1.2-2.5-2.6c-1.7-2-3-4.3-3.9-6.8-0.9-2.5-1.3-5.1-1.3-7.7 0-2.6 0.4-5.2 1.3-7.7 0.9-2.4 2.2-4.7 3.9-6.7q1.2-1.4 2.6-2.7 1.3-1.2 2.9-2.2 1.5-1 3.1-1.8 1.7-0.8 3.4-1.3l0.8-0.3 0.9-0.2 1.7-0.4 1.6-0.2 0.8-0.1h0.9l1.6-0.1c0.6 0 1.1 0 1.6 0.1q0.4 0 0.8 0 0.4 0 0.8 0.1 0.4 0 0.8 0.1 0.4 0 0.8 0.1 1.4 0.2 2.7 0.6 1.4 0.4 2.7 0.9 1.3 0.5 2.6 1.2 1.3 0.7 2.4 1.5 1 0.7 1.9 1.4 0.9 0.8 1.8 1.6 0.8 0.9 1.5 1.8 0.8 0.9 1.4 1.9 0.5 0.7 1 1.5 0.4 0.8 0.8 1.6 0.3 0.8 0.6 1.7 0.3 0.8 0.5 1.7 0.2 0.7 0.4 1.3 0.1 0.7 0.2 1.2 0 0.6 0.1 1c0.1 0.3 0 0.6 0 0.9q0 0.7 0 1.2 0 0 0.1 0.1 0 0 0 0.1 0 0 0 0.1 0 0 0 0.1z"/>
		<path id="Layer" class="s0" d="m292.7 340.5c-3 1.3-6.3 1.2-9.5 0.8-3.2-0.3-6.4-0.9-9.6-0.2-4.8 1-9.2 4.6-14.1 4.3-6.9-0.3-11-7.7-17.1-11-7.4-4-17.3-1.5-23.3-8.8q-1.3-1.7-2.1-3.6-0.8-2-1-4.1-0.2-2.1 0.2-4.2 0.5-2 1.5-3.9c4.3-7.8 14.3-9.1 22.1-6.3 6.7 2.4 12.2 7.3 17.4 12.1 1.8 1.7 3.6 3.4 5.4 4.9q2.2 1.9 4.8 3.4 2.5 1.4 5.3 2.3 2.8 0.8 5.7 1.1 2.9 0.3 5.8 0 1.3-0.1 2.7 0 1.4 0.1 2.8 0.5 1.3 0.4 2.6 1 1.2 0.7 2.3 1.5 0.3 0.3 0.6 0.5 0.2 0.3 0.5 0.6 0.2 0.3 0.4 0.7 0.2 0.3 0.3 0.6 0.2 0.4 0.3 0.7 0.1 0.4 0.2 0.7 0 0.4 0.1 0.8 0 0.3-0.1 0.7c-0.2 2.5-1.8 3.9-4.2 4.9z"/>
		<g id="Layer" style="opacity: .8">
			<path id="Layer" class="s1" d="m292.7 340.5c-3 1.3-6.3 1.2-9.5 0.8-3.2-0.3-6.4-0.9-9.6-0.2-4.8 1-9.2 4.6-14.1 4.3-6.9-0.3-11-7.7-17.1-11-7.4-4-17.3-1.5-23.3-8.8q-1.3-1.7-2.1-3.6-0.8-2-1-4.1-0.2-2.1 0.2-4.2 0.5-2 1.5-3.9c4.3-7.8 14.3-9.1 22.1-6.3 6.7 2.4 12.2 7.3 17.4 12.1 1.8 1.7 3.6 3.4 5.4 4.9q2.2 1.9 4.8 3.4 2.5 1.4 5.3 2.3 2.8 0.8 5.7 1.1 2.9 0.3 5.8 0 1.3-0.1 2.7 0 1.4 0.1 2.8 0.5 1.3 0.4 2.6 1 1.2 0.7 2.3 1.5 0.3 0.3 0.6 0.5 0.2 0.3 0.5 0.6 0.2 0.3 0.4 0.7 0.2 0.3 0.3 0.6 0.2 0.4 0.3 0.7 0.1 0.4 0.2 0.7 0 0.4 0.1 0.8 0 0.3-0.1 0.7c-0.2 2.5-1.8 3.9-4.2 4.9z"/>
		</g>
		<path id="Layer" class="s0" d="m179.4 337.2c5.5 7.1-0.8 18.2-5.4 24.6q-1.8 2.4-4.1 4.3-2.2 1.9-4.9 3.3-2.6 1.4-5.5 2.1-2.9 0.7-5.8 0.7-2.3 0-4.6-0.2-2.3-0.2-4.6-0.7-2.3-0.4-4.5-1.1-2.2-0.6-4.3-1.5-0.9-0.3-1.6-0.7-0.8-0.4-1.6-0.9-0.7-0.5-1.4-1.1-0.7-0.5-1.4-1.1-0.6-0.7-1.1-1.5-0.5-0.8-0.7-1.7-0.3-0.9-0.4-1.8-0.1-0.9 0.1-1.9c0.7-4.2 5.7-6.2 10-6.3 4.3 0 8.7 1.1 12.8-0.3 3.8-1.3 6.6-4.5 9-7.7 2.4-3.2 4.9-6.5 8.5-8.3 3.6-1.7 9.6-1.7 11.6 1.8"/>
		<g id="Layer" style="opacity: .8">
			<path id="Layer" class="s1" d="m179.4 337.2c5.5 7.1-0.8 18.2-5.4 24.6q-1.8 2.4-4.1 4.3-2.2 1.9-4.9 3.3-2.6 1.4-5.5 2.1-2.9 0.7-5.8 0.7-2.3 0-4.6-0.2-2.3-0.2-4.6-0.7-2.3-0.4-4.5-1.1-2.2-0.6-4.3-1.5-0.9-0.3-1.6-0.7-0.8-0.4-1.6-0.9-0.7-0.5-1.4-1.1-0.7-0.5-1.4-1.1-0.6-0.7-1.1-1.5-0.5-0.8-0.7-1.7-0.3-0.9-0.4-1.8-0.1-0.9 0.1-1.9c0.7-4.2 5.7-6.2 10-6.3 4.3 0 8.7 1.1 12.8-0.3 3.8-1.3 6.6-4.5 9-7.7 2.4-3.2 4.9-6.5 8.5-8.3 3.6-1.7 9.6-1.7 11.6 1.8"/>
		</g>
		<path id="Layer" class="s0" d="m72.2 357.3q0.9 0 1.7 0.1 0.9 0.2 1.7 0.5 0.8 0.3 1.5 0.8c1.9 1.4 3.9 3.2 3.9 5.6 0 2.4-2.2 4.7-4.6 4.3-1.5-0.3-2.9-1.6-4.5-1.4-1 0.2-1.8 1-2.7 1.3q-0.7 0.2-1.4 0.1-0.7-0.1-1.4-0.4-0.6-0.4-1-0.9-0.5-0.6-0.7-1.2-0.2-0.7-0.3-1.4 0-0.7 0.2-1.4 0.1-0.7 0.5-1.4 0.3-0.6 0.8-1.1 0.4-0.6 1-1 0.5-0.5 1.1-0.9 0.6-0.4 1.2-0.7 0.7-0.3 1.3-0.6 0.9-0.2 1.7-0.3z"/>
		<g id="Layer" style="opacity: .8">
			<path id="Layer" class="s1" d="m72.2 357.3q0.9 0 1.7 0.1 0.9 0.2 1.7 0.5 0.8 0.3 1.5 0.8c1.9 1.4 3.9 3.2 3.9 5.6 0 2.4-2.2 4.7-4.6 4.3-1.5-0.3-2.9-1.6-4.5-1.4-1 0.2-1.8 1-2.7 1.3q-0.7 0.2-1.4 0.1-0.7-0.1-1.4-0.4-0.6-0.4-1-0.9-0.5-0.6-0.7-1.2-0.2-0.7-0.3-1.4 0-0.7 0.2-1.4 0.1-0.7 0.5-1.4 0.3-0.6 0.8-1.1 0.4-0.6 1-1 0.5-0.5 1.1-0.9 0.6-0.4 1.2-0.7 0.7-0.3 1.3-0.6 0.9-0.2 1.7-0.3z"/>
		</g>
		<path id="Layer" class="s4" d="m514.6 226.1c-12.4 2-28.3 6-28.3 6-7.5 0.7 1-6.8-23.4-2.6-3.9 0.7-10.9 1.1-13-2.4-2.1-3.5 6.3-6.8 5.1-10.7-1.6-5.2-14.1-9.6-18.6-12.7-4.5-3-9.2-7.3-9-12.8 9.6-7.8 24.5-8.2 34.5-1 5 3.6 8.9 8.9 14.6 11.2 4.3 1.8 9.3 1.5 13.9 0.3 4.6-1.3 8.6-7.4 16.8-7"/>
		<path id="Layer" class="s2" d="m589.5 338.2l-8-18.5 17-7.3 5.9 23.1-14.2 2.7"/>
		<path id="Layer" class="s0" d="m604.4 332.5l5 16.2c0 0 18 0.4 19.2 3.3l-31 10.7-8.7-24.9z"/>
		<g id="Layer" style="opacity: .6">
			<path id="Layer" class="s1" d="m599.2 350.7q0.2-0.1 0.4-0.2 0.3-0.1 0.5 0 0.3 0 0.5 0.1 0.3 0.1 0.4 0.3 0.2 0.3 0.2 0.5 0 0.3 0 0.5-0.1 0.3-0.2 0.5-0.2 0.2-0.4 0.4-0.2 0.1-0.4 0.2-0.3 0-0.5-0.1-0.2 0-0.5-0.2-0.2-0.1-0.3-0.3-0.1-0.2-0.2-0.5 0-0.2 0.1-0.4 0-0.3 0.1-0.5 0.2-0.2 0.4-0.4"/>
		</g>
		<g id="Layer" style="opacity: .6">
			<path id="Layer" class="s1" d="m597.6 362.7l-0.7-2.6 30-9.3c0 0 1.6 0.1 1.7 1.2z"/>
		</g>
		<path id="Layer" class="s3" d="m609.8 348.4c0 0.1-0.7 0.4-1.3 1.2-0.6 0.7-0.7 1.5-0.9 1.5-0.2 0-0.2-1 0.5-1.9 0.7-0.8 1.7-1 1.7-0.8z"/>
		<path id="Layer" class="s3" d="m613.5 348.6c0.1 0.1-0.5 0.6-0.8 1.4-0.3 0.8-0.2 1.5-0.3 1.6-0.2 0-0.6-0.8-0.2-1.8 0.4-1 1.2-1.4 1.3-1.2z"/>
		<path id="Layer" class="s3" d="m616.7 351.8c-0.2 0.1-0.6-0.6-0.5-1.6 0.1-0.9 0.7-1.5 0.8-1.4 0.1 0.1-0.2 0.7-0.3 1.5 0 0.8 0.1 1.4 0 1.5z"/>
		<path id="Layer" class="s3" d="m608.2 344.8c0 0.2-0.8 0.2-1.6 0.5-0.8 0.4-1.4 0.9-1.5 0.8-0.1-0.1 0.3-0.9 1.3-1.3 1-0.4 1.9-0.2 1.8 0z"/>
		<path id="Layer" class="s3" d="m607.2 341.6q-0.2 0.1-0.4 0.2-0.2 0.1-0.4 0.1-0.2 0.1-0.4 0.1-0.2 0.1-0.4 0.1-0.2 0-0.4 0-0.3 0.1-0.5 0.1-0.2 0-0.4 0-0.3 0-0.5-0.1-0.1 0-0.2 0-0.2 0-0.3 0-0.1 0-0.3-0.1-0.1 0-0.2 0-0.1 0-0.2-0.1-0.1 0-0.1 0-0.1 0-0.2-0.1-0.1 0-0.1 0-0.1-0.1-0.2-0.2-0.1 0-0.1-0.2-0.1-0.1-0.1-0.2 0-0.1 0-0.2 0.1-0.1 0.1-0.2 0.1-0.1 0.1-0.2 0.1 0 0.2-0.1 0.1 0 0.2-0.1 0 0 0.1 0 0.1 0 0.2-0.1 0 0 0.1 0 0.1 0 0.2 0 0.1 0 0.2 0 0.2 0 0.3 0 0.1 0 0.3 0 0.1 0 0.2 0 0.3 0 0.5 0.1 0.2 0 0.4 0.1 0.3 0 0.5 0.1 0.2 0.1 0.4 0.1c1 0.5 1.4 0.9 1.4 1-0.1 0-0.6-0.3-1.5-0.6q-0.2-0.1-0.4-0.1-0.2-0.1-0.4-0.1-0.3 0-0.5-0.1-0.2 0-0.4 0-0.1 0-0.2 0-0.2 0-0.3 0-0.1 0-0.2 0-0.2 0-0.3 0c-0.3 0-0.6 0.1-0.6 0.3-0.1 0.2 0 0.1 0.1 0.2q0 0 0.1 0 0 0 0.1 0.1 0 0 0.1 0 0 0 0.1 0 0.1 0 0.2 0.1 0.2 0 0.3 0 0.1 0 0.2 0.1 0.2 0 0.3 0 0.2 0 0.4 0 0.2 0.1 0.4 0.1 0.2 0 0.5 0 0.2 0 0.4-0.1 0.2 0 0.4 0 0.2 0 0.4 0 0.2 0 0.4 0 0.2-0.1 0.4-0.1z"/>
		<path id="Layer" class="s3" d="m607 341.8c0 0-0.5-0.4-0.9-1.3q-0.1-0.2-0.1-0.4-0.1-0.3-0.1-0.5-0.1-0.2-0.1-0.4-0.1-0.3-0.1-0.5 0-0.1 0-0.3 0-0.1 0-0.2 0.1-0.2 0.1-0.3 0-0.1 0-0.3 0-0.1 0.1-0.3 0-0.2 0.1-0.3 0.1-0.2 0.2-0.3 0.2-0.1 0.3-0.2 0.1 0 0.2 0 0.1 0 0.3 0 0.1 0 0.2 0.1 0 0 0.1 0.1 0.1 0.1 0.1 0.1 0.1 0.1 0.1 0.2 0.1 0 0.1 0.1 0 0.1 0.1 0.1 0 0.1 0.1 0.3 0.1 0.1 0.1 0.2 0 0.1 0.1 0.3 0 0.1 0 0.2 0.1 0.3 0.1 0.5 0 0.2 0 0.5 0 0.2 0 0.4-0.1 0.2-0.2 0.5c-0.3 1-0.9 1.4-0.9 1.3q0.1-0.2 0.2-0.3 0-0.2 0.1-0.4 0.1-0.2 0.1-0.4 0.1-0.2 0.2-0.3 0-0.2 0-0.4 0-0.2 0-0.5 0-0.2 0-0.4 0-0.2 0-0.4-0.1-0.1-0.1-0.2 0-0.1-0.1-0.2 0-0.1-0.1-0.2 0-0.1-0.1-0.3c-0.1-0.3-0.4-0.5-0.5-0.4q-0.1 0.1-0.1 0.1-0.1 0.1-0.1 0.2-0.1 0.1-0.1 0.2 0 0.1 0 0.2-0.1 0.1-0.1 0.2 0 0.2 0 0.3 0 0.1 0 0.2 0 0.2 0 0.3 0 0.2 0 0.4 0 0.2 0 0.4 0.1 0.2 0.1 0.4 0.1 0.2 0.1 0.4c0.3 1 0.6 1.5 0.5 1.5z"/>
		<path id="Layer" class="s3" d="m540.5 211l46.3 41.6 18.3 73.4-22 9-23.5-62.7c0 0-46-34.6-55.9-41.4-9.9-6.8 4.8-35.9 4.8-35.9z"/>
		<path id="Layer" class="s4" d="m565 260.8c0.1 0.1-1.4 2.1-2.5 5-1.1 2.8-1.5 5.3-1.6 5.3q0-1.4 0.3-2.8 0.3-1.4 0.8-2.7 0.5-1.4 1.3-2.6 0.7-1.2 1.7-2.2z"/>
		<path id="Layer" class="s4" d="m561.4 260.2c0.1 0-0.5 2.4-0.8 5.4-0.2 3 0 5.5-0.1 5.5q-0.2-0.7-0.3-1.4-0.1-0.7-0.2-1.4 0-0.7 0-1.3 0-0.7 0.1-1.4 0-0.7 0.1-1.4 0.1-0.7 0.3-1.4 0.1-0.7 0.4-1.3 0.2-0.7 0.5-1.3z"/>
		<path id="Layer" class="s4" d="m585.3 334.1q0-0.1 0-0.1 0-0.1-0.1-0.1 0 0 0-0.1 0 0 0-0.1-0.2-0.3-0.4-0.9-0.5-1.3-1.4-3.6c-1.2-3.2-3-7.8-5.1-13.5-2.1-5.8-4.6-12.6-7.3-20.4q-0.9-2.9-1.9-6c-0.7-2.1-1.2-4.2-2.1-6.3-1.7-4.2-3.7-8.4-5.9-12.7l0.1 0.1c-2.5-2.1-5.1-4.3-7.8-6.5-2.1-1.7-4.1-3.4-6.2-5l-6.2-4.7c-4.1-3.1-8-6-11.8-8.8-3.8-2.7-7.6-5-11-7.4q-1.3-0.8-2.4-1.7-1.2-0.8-2.3-1.7-1.2-0.9-2.3-1.9-1.1-1-2.1-2-0.5-0.4-0.9-0.9-0.4-0.4-0.8-0.9-0.4-0.5-0.8-1-0.4-0.6-0.7-1.1-0.3-0.5-0.6-1-0.3-0.5-0.5-1-0.2-0.6-0.4-1.1-0.2-0.5-0.3-1.1-0.2-0.9-0.3-1.8-0.1-0.9-0.1-1.8 0-0.9 0.1-1.8 0-0.9 0.2-1.8 0.1-0.6 0.3-1.1 0.1-0.6 0.3-1.1 0.1-0.6 0.3-1.1 0.2-0.6 0.4-1.1 0.3-0.7 0.5-1.1 0 0 0-0.1 0 0 0-0.1 0.1 0 0.1-0.1 0 0 0-0.1c0 0 0 0.2-0.1 0.4-0.1 0.3-0.2 0.6-0.4 1.1q-0.2 0.6-0.4 1.1-0.1 0.6-0.3 1.1-0.1 0.6-0.3 1.1-0.1 0.6-0.2 1.1-0.1 0.9-0.2 1.8-0.1 0.9-0.1 1.8 0.1 0.9 0.2 1.8 0.1 0.9 0.3 1.7 0.1 0.6 0.3 1.1 0.2 0.5 0.4 1.1 0.2 0.5 0.5 1 0.3 0.5 0.6 0.9 0.3 0.6 0.7 1.1 0.3 0.5 0.7 0.9 0.4 0.5 0.9 1 0.4 0.4 0.9 0.9 1 1 2.1 1.9 1.1 1 2.2 1.9 1.2 0.9 2.3 1.7 1.2 0.8 2.4 1.6c3.5 2.4 7.2 4.7 11.1 7.5 3.8 2.7 7.7 5.6 11.8 8.7l6.2 4.7c2.1 1.6 4.2 3.3 6.3 5 2.7 2.2 5.3 4.4 7.7 6.5v0.1c2.2 4.3 4.2 8.5 5.9 12.7q0.3 0.8 0.6 1.5 0.3 0.8 0.5 1.6 0.3 0.8 0.5 1.6 0.3 0.8 0.5 1.6 1 3.1 1.9 6c2.6 7.8 5.1 14.7 7.2 20.4l4.9 13.6q0.9 2.3 1.3 3.6l0.4 1q0 0.1 0 0.1 0 0 0.1 0.1 0 0 0 0.1 0 0 0 0.1z"/>
		<path id="Layer" class="s3" d="m526.6 204.3l28.4 4 14.5 3.7-19.9 7.2-23-14.9z"/>
		<path id="Layer" class="s3" d="m491.9 202.3q-0.1 0-0.1 0.1-0.1 0.1-0.2 0.2-0.1 0.1-0.1 0.2-0.1 0.1-0.2 0.1-0.2 0.2-0.4 0.5-0.3 0.2-0.5 0.4-0.2 0.2-0.5 0.4-0.2 0.2-0.4 0.4-1.6 1.2-3.4 2.3-1.7 1-3.6 1.8-1.8 0.8-3.8 1.3-1.9 0.5-4 0.7-0.3 0.1-0.6 0.1-0.3 0-0.6 0-0.3 0-0.6 0.1-0.3 0-0.6 0-0.1 0-0.2 0-0.1 0-0.3 0-0.1 0-0.2-0.1-0.1 0-0.2 0c0-0.1 1.3-0.1 3.3-0.5q1-0.1 1.9-0.3 1-0.2 2-0.5 0.9-0.3 1.9-0.6 0.9-0.3 1.8-0.7 1-0.4 1.9-0.8 0.8-0.5 1.7-1 0.9-0.5 1.7-1 0.8-0.5 1.7-1.1c1.6-1.2 2.5-2.1 2.6-2.1z"/>
		<path id="Layer" class="s0" d="m517.9 131.1q0.3-1.2 0.8-2.3 0.4-1.1 1-2.2 0.6-1.1 1.2-2.1 0.7-0.9 1.5-1.8 0.9-1 1.9-1.7 1.1-0.8 2.2-1.4 1.1-0.6 2.3-1 1.2-0.4 2.5-0.7 2-0.3 4-0.6 2.1-0.3 4.1-0.5 2-0.2 4.1-0.4 2-0.1 4.1-0.2l6.5-0.1 19.3 10.8 0.3 0.3q1.1 0.9 2.1 2 0.9 1.1 1.7 2.3 0.7 1.2 1.2 2.6 0.6 1.3 0.8 2.7l9.3 45.3 13.2 22.3-12.8 2.9-19.6-20.3-4.2-24.5-9.6 21 2.7 25.6c0 0-7.9 0.1-20.7-4.2-12.9-4.2-31-3-31-3l5.4-41.2z"/>
		<path id="Layer" class="s3" d="m573.5 143.5q0 0.2 0 0.4-0.1 0.1-0.2 0.3 0 0.2-0.1 0.3-0.1 0.2-0.1 0.4l-1.5 3.5c-1.3 3-3 7-5 11.5l-5.1 11.5q-1 2.1-1.6 3.5-0.1 0.2-0.1 0.3-0.1 0.2-0.2 0.3-0.1 0.2-0.2 0.4 0 0.1-0.1 0.3 0-0.2 0-0.4 0.1-0.2 0.1-0.3 0.1-0.2 0.2-0.3 0-0.2 0.1-0.4c0.3-0.8 0.8-2 1.4-3.5 1.3-3 3-7.1 5-11.6 2-4.5 3.9-8.5 5.2-11.5l1.6-3.4q0.1-0.2 0.2-0.4 0-0.1 0.1-0.3 0.1-0.1 0.2-0.3 0.1-0.1 0.1-0.3z"/>
		<path id="Layer" class="s0" d="m524.6 121.8c5.7-3.3 14.9 0.1 17.2 6.3l15.7 46.7 29.3 28.2-9 11.7-39-27.6q-0.9-0.7-1.7-1.5-0.8-0.8-1.4-1.7-0.7-0.9-1.2-1.9-0.6-0.9-1-2c-3.5-9.2-10.7-33.2-14.5-43.6-1.7-4.8 1.3-12 5.6-14.6z"/>
		<path id="Layer" class="s3" d="m542.5 130.1q0 0 0.3 0.8l0.9 2.4c0.7 2.1 1.7 5.1 3.1 9l11 32.5-0.1-0.1 29.3 28.1 0.2 0.2-0.2 0.2-6.5 8.4c-0.8 1.1-1.7 2.3-2.5 3.3l-0.1 0.2-0.3-0.2-29.9-21.5-6.7-4.9-1.6-1.1q-0.2-0.2-0.4-0.3-0.2-0.2-0.4-0.3-0.2-0.2-0.4-0.3-0.2-0.2-0.4-0.3-0.3-0.4-0.7-0.7-0.3-0.4-0.6-0.8-0.3-0.3-0.6-0.7-0.3-0.4-0.5-0.8-0.3-0.4-0.5-0.9-0.3-0.4-0.5-0.8-0.2-0.4-0.3-0.8-0.2-0.5-0.4-0.9l-1.3-3.3q-1.2-3.3-2.3-6.3c-2.9-8-5-14.5-6.4-19q-1.1-3.4-1.6-5.3c-0.2-0.5-0.3-1-0.4-1.3q0-0.1-0.1-0.1 0-0.1 0-0.2 0 0 0-0.1 0 0 0-0.1c-0.1 0 0 0.2 0.1 0.5q0.2 0.4 0.5 1.3c0.4 1.2 1 2.9 1.7 5.2 1.5 4.5 3.6 11 6.6 19q1.1 3 2.3 6.2 0.6 1.7 1.3 3.4 0.2 0.4 0.3 0.8 0.2 0.4 0.4 0.8 0.2 0.4 0.4 0.8 0.3 0.4 0.5 0.8 0.3 0.4 0.5 0.8 0.3 0.4 0.6 0.7 0.3 0.4 0.7 0.7 0.3 0.4 0.6 0.7 0.2 0.2 0.4 0.3 0.2 0.2 0.4 0.3 0.2 0.2 0.4 0.3 0.1 0.2 0.4 0.3l1.6 1.2 6.7 4.8 30 21.5h-0.4l2.6-3.3 6.5-8.4v0.4l-29.3-28.2v-0.1c-4.5-13.4-8.2-24.6-10.8-32.5l-3-9.1-0.8-2.3c-0.2-0.7-0.3-0.9-0.3-0.9z"/>
		<path id="Layer" class="s3" d="m538.8 124.4c-0.1 0-0.7-0.7-2-1.4q-1.2-0.8-2.6-1.3-1.4-0.4-2.9-0.5-1.4 0-2.9 0.3-1.4 0.3-2.7 0.9c-1.3 0.7-2 1.3-2.1 1.2q0.2-0.2 0.4-0.4 0.2-0.2 0.5-0.4 0.2-0.2 0.5-0.4 0.3-0.2 0.5-0.3 1.4-0.7 2.8-1.1 1.5-0.4 3-0.3 1.6 0.1 3 0.6 1.5 0.5 2.7 1.3 0.3 0.2 0.5 0.4 0.3 0.2 0.5 0.4 0.2 0.2 0.4 0.5 0.2 0.2 0.4 0.5z"/>
		<path id="Layer" class="s3" d="m589.6 182.7c0 0.2-1.8 0-4 0.5-2.1 0.5-3.7 1.6-3.8 1.4q0.4-0.3 0.8-0.7 0.5-0.3 0.9-0.5 0.5-0.2 1-0.4 0.5-0.2 1-0.3 0.5-0.1 1-0.2 0.5-0.1 1.1-0.1 0.5 0 1 0.1 0.5 0.1 1 0.2z"/>
		<path id="Layer" class="s6" d="m524.1 152.1q0 0-0.1 0.1 0 0-0.1 0 0 0-0.1 0 0 0-0.1 0-0.1 0.1-0.2 0.1-0.2 0-0.3 0-0.1 0.1-0.3 0.1-0.1 0-0.2 0-0.5 0-0.9 0.1-0.5 0-0.9-0.1-0.5 0-1-0.1-0.4 0-0.8-0.1-0.6-0.2-1.2-0.4-0.5-0.2-1-0.5-0.6-0.3-1.1-0.6-0.4-0.3-0.9-0.7 0 0-0.1-0.1 0 0-0.1 0 0-0.1 0-0.1-0.1 0-0.1-0.1 0.5 0.4 1.1 0.7 0.5 0.4 1.1 0.6 0.5 0.3 1.1 0.5 0.6 0.3 1.2 0.5 0.6 0.1 1.3 0.2 0.6 0 1.2 0 0.6 0.1 1.3 0 0.6 0 1.2-0.1z"/>
		<path id="Layer" class="s6" d="m527.2 161.1q-0.3-0.2-0.5-0.3-0.2-0.2-0.4-0.3-0.3-0.2-0.5-0.3-0.2-0.1-0.5-0.2-0.6-0.3-1.2-0.5-0.6-0.2-1.2-0.4-0.6-0.2-1.3-0.3-0.6-0.1-1.3-0.1-0.6-0.1-1.3-0.1-0.6 0-1.3 0-0.6 0.1-1.3 0.1-0.6 0-1.3 0.1l-1.5 0.2q-0.1 0-0.2 0-0.1 0-0.1 0-0.1 0-0.2 0 0 0-0.1 0 0-0.1 0.1-0.1 0.1 0 0.2 0 0 0 0.1 0 0.1-0.1 0.1-0.1 0.6 0 1.6-0.2 0.7-0.1 1.3-0.1 0.7-0.1 1.3-0.1 0.7 0 1.3 0 0.7 0 1.3 0 0.7 0.1 1.3 0.2 0.7 0.1 1.3 0.3 0.6 0.1 1.2 0.4 0.6 0.2 1.2 0.5 0.2 0.1 0.4 0.2 0.2 0.1 0.3 0.2 0.2 0.1 0.3 0.2 0.2 0.1 0.4 0.2 0 0.1 0.1 0.1 0.1 0.1 0.1 0.1 0.1 0.1 0.2 0.1 0 0.1 0.1 0.2z"/>
		<g id="Layer" style="opacity: .4">
			<path id="Layer" class="s7" d="m522.1 145.9c2.2 6.4 4.5 12.4 6.6 18.7 2.3 6.9 3.3 14.1 7.7 19.8 2.4 2.9 6.6 5.3 9.5 7.7q3.4 2.8 6.9 5.4c-7.3-1.5-14.7-3.8-19.9-9-5.2-5.1-7.4-12.5-8.6-19.7-1.2-7.3-2.2-22.9-2.2-22.9"/>
		</g>
		<path id="Layer" class="s6" d="m549.3 152q-0.1 0.1-0.2 0.1-0.1 0.1-0.2 0.1-0.1 0.1-0.2 0.1-0.1 0.1-0.2 0.1-0.3 0.1-0.6 0.2-0.3 0.1-0.7 0.1-0.3 0.1-0.6 0.1-0.3 0-0.6 0c-2.2 0-5-1-8.3-0.7q-1 0.1-2 0.3-1 0.2-2 0.5-1 0.3-1.9 0.7-1 0.4-1.9 1-0.2 0.1-0.5 0.3-0.3 0.2-0.5 0.4-0.3 0.1-0.5 0.3-0.3 0.2-0.5 0.4l-0.5 0.5q-0.2 0.1-0.2 0.1 0.3-0.3 0.6-0.6 0.3-0.3 0.6-0.6 0.4-0.2 0.7-0.5 0.4-0.2 0.8-0.5 0.8-0.5 1.8-0.9 0.9-0.5 1.9-0.8 1-0.3 2.1-0.5 1-0.3 2-0.3c3.3-0.3 6.2 0.7 8.3 0.7q0.3 0.1 0.6 0 0.3 0 0.6 0 0.3 0 0.6-0.1 0.3-0.1 0.6-0.2c0.6-0.1 0.9-0.3 0.9-0.3z"/>
		<path id="Layer" class="s6" d="m546.4 144.4q0 0.1-0.1 0.1 0 0 0 0 0 0-0.1 0.1 0 0 0 0l-0.6 0.3q-0.7 0.5-2.2 1.1-1.8 0.9-3.7 1.5-1.9 0.7-3.8 1.2-2 0.4-4 0.7-2 0.3-4 0.3c-1 0-1.9 0-2.5 0h-0.6q0 0-0.1 0 0 0 0 0-0.1 0-0.1 0 0 0-0.1 0h0.3 0.6c0.6 0 1.4 0 2.5 0q1-0.1 2-0.2 1-0.1 2-0.2 1-0.1 1.9-0.3 1-0.2 2-0.4 1-0.3 1.9-0.5 1-0.3 2-0.6 0.9-0.4 1.8-0.7 1-0.4 1.9-0.8c0.9-0.4 1.7-0.8 2.2-1l0.6-0.3c0.1-0.2 0.2-0.3 0.2-0.3z"/>
		<path id="Layer" class="s6" d="m568.5 152.7l-0.2-0.1q-0.1 0-0.2-0.1-0.1 0-0.2 0-0.1-0.1-0.2-0.1-0.1 0-0.2-0.1-0.3-0.1-0.6-0.3-0.4-0.2-0.7-0.4-0.3-0.2-0.6-0.4-0.3-0.2-0.5-0.5c-1.9-1.6-3.7-4.6-6.6-7q-1.3-1-2.6-1.8-1.4-0.8-2.8-1.4-1.5-0.6-3-0.9-1.5-0.4-3.1-0.6l-0.7-0.1q-0.1 0-0.1 0 0 0-0.1 0 0 0 0 0-0.1 0-0.1 0 0.5 0 1 0 0.5 0.1 1 0.1 0.5 0.1 1 0.2 0.5 0.1 1 0.2 1.2 0.3 2.3 0.7 1.2 0.4 2.2 0.9 1.1 0.5 2.2 1.2 1 0.6 1.9 1.4 0.5 0.4 1 0.9 0.5 0.4 1 0.9 0.5 0.5 0.9 1 0.4 0.5 0.8 1 0.4 0.5 0.7 0.9 0.4 0.4 0.7 0.8 0.4 0.4 0.7 0.8 0.4 0.4 0.8 0.8 0.3 0.2 0.5 0.4 0.3 0.3 0.6 0.5 0.3 0.2 0.6 0.4 0.4 0.2 0.7 0.3c0.6 0.3 0.9 0.3 0.9 0.4z"/>
		<path id="Layer" class="s6" d="m567.4 157.4q-0.1 0-0.2 0-0.1-0.1-0.3-0.1-0.1 0-0.2-0.1-0.1 0-0.2 0-0.2-0.1-0.5-0.3-0.3-0.1-0.5-0.3-0.3-0.1-0.5-0.3-0.2-0.2-0.5-0.4-0.3-0.2-0.6-0.5-0.3-0.3-0.6-0.7-0.4-0.3-0.6-0.6-0.3-0.3-0.6-0.7-0.4-0.4-0.7-0.8-0.4-0.4-0.8-0.7-0.3-0.4-0.7-0.8-0.4-0.3-0.8-0.7-0.4-0.3-0.9-0.6-0.4-0.2-0.9-0.4-0.5-0.3-1-0.4-0.5-0.1-1.1-0.2-0.4-0.1-0.8-0.1-0.5 0-0.9 0-0.4-0.1-0.9 0-0.4 0-0.8 0c-1 0.1-1.8 0.2-2.4 0.3l-0.6 0.1q0 0-0.1 0 0 0 0 0 0 0-0.1 0 0 0 0 0 0 0 0 0 0 0 0.1 0 0-0.1 0-0.1 0.1 0 0.1 0l0.6-0.1c0.6-0.1 1.4-0.2 2.3-0.3q0.5-0.1 0.9-0.1 0.5-0.1 0.9-0.1 0.4 0 0.9 0.1 0.4 0 0.9 0.1 0.5 0 1 0.2 0.6 0.1 1.1 0.3 0.5 0.2 1 0.5 0.4 0.3 0.9 0.6 0.4 0.4 0.8 0.8 0.4 0.3 0.7 0.7 0.4 0.4 0.8 0.8 0.3 0.4 0.7 0.8 0.2 0.4 0.5 0.7 0.3 0.3 0.6 0.6 0.3 0.3 0.6 0.6 0.3 0.3 0.7 0.6 0.2 0.2 0.4 0.4 0.3 0.2 0.5 0.3 0.3 0.2 0.5 0.3 0.3 0.2 0.6 0.3c0.4 0.2 0.7 0.3 0.7 0.3z"/>
		<path id="Layer" class="s6" d="m582.7 154.2q-0.3-0.1-0.6-0.1-0.2-0.1-0.5-0.1-0.3 0-0.6 0-0.3 0-0.5 0-0.3 0-0.6 0.1-0.3 0-0.6 0.1-0.3 0-0.6 0.1-0.3 0.1-0.6 0.2c-0.9 0.3-1.8 0.8-2.8 1.2q-0.3 0.2-0.6 0.3-0.4 0.1-0.7 0.3-0.4 0.1-0.8 0.2-0.3 0.1-0.7 0.2-0.3 0.1-0.6 0.1-0.3 0-0.6 0.1-0.3 0-0.6 0-0.4 0-0.7-0.1-0.2 0-0.4-0.1-0.2 0-0.4-0.1-0.2 0-0.4-0.1-0.2-0.1-0.4-0.2 0 0-0.1-0.1 0 0-0.1 0 0-0.1-0.1-0.1 0-0.1-0.1-0.1 0.2 0.1 0.5 0.3 0.2 0.1 0.5 0.2 0.3 0.1 0.5 0.1 0.3 0.1 0.6 0.1 0.3 0.1 0.6 0.1 0.3 0 0.6-0.1 0.3 0 0.6 0 0.3-0.1 0.6-0.2 0.4 0 0.7-0.1 0.4-0.2 0.7-0.3 0.4-0.1 0.7-0.2 0.4-0.2 0.7-0.3c1-0.5 1.9-0.9 2.8-1.2q0.3-0.1 0.6-0.2 0.3-0.1 0.6-0.2 0.3 0 0.6-0.1 0.3 0 0.6 0 0.2 0 0.4 0 0.2 0 0.4 0 0.2 0 0.5 0.1 0.2 0 0.4 0 0 0.1 0.1 0.1 0.1 0 0.1 0 0.1 0 0.2 0 0 0.1 0.1 0.1z"/>
		<path id="Layer" class="s6" d="m584.3 159.6q-0.3-0.2-0.7-0.4-0.3-0.1-0.6-0.3-0.4-0.1-0.8-0.2-0.3 0-0.7-0.1-0.4 0-0.8 0.1-0.4 0-0.8 0.1-0.4 0-0.8 0.1-0.4 0.2-0.7 0.3-0.5 0.2-0.9 0.4-0.5 0.3-0.9 0.5-0.4 0.3-0.8 0.5-0.4 0.3-0.8 0.6-0.4 0.3-0.9 0.6-0.4 0.3-0.8 0.5-0.4 0.3-0.8 0.5-0.5 0.3-0.9 0.5-0.4 0.2-0.8 0.3-0.4 0.2-0.8 0.3-0.4 0.1-0.8 0.2-0.4 0-0.8 0.1-0.3 0-0.5 0-0.3 0-0.6-0.1-0.3 0-0.5-0.1-0.3-0.1-0.5-0.1-0.1-0.1-0.2-0.1-0.1-0.1-0.2-0.1-0.1-0.1-0.2-0.1-0.1-0.1-0.2-0.1 0.4 0.1 0.7 0.3 0.4 0.1 0.7 0.1 0.4 0.1 0.8 0.1 0.3 0 0.7 0 0.4 0 0.8-0.1 0.4-0.1 0.8-0.2 0.4-0.1 0.8-0.2 0.3-0.2 0.7-0.3 0.4-0.3 0.9-0.5 0.4-0.3 0.8-0.5 0.4-0.3 0.8-0.6 0.4-0.3 0.8-0.6 0.4-0.3 0.9-0.5 0.4-0.3 0.8-0.6 0.4-0.2 0.9-0.4 0.4-0.3 0.9-0.5 0.4-0.1 0.8-0.2 0.4-0.1 0.8-0.2 0.4-0.1 0.8-0.1 0.4 0 0.8 0 0.3 0 0.6 0.1 0.2 0 0.5 0.1 0.3 0.1 0.5 0.2 0.3 0.1 0.5 0.2 0.1 0.1 0.2 0.1 0.1 0.1 0.2 0.2 0 0 0.1 0.1 0.1 0.1 0.2 0.1z"/>
		<g id="Layer" style="opacity: .4">
			<path id="Layer" class="s7" d="m567.6 175.5l-2.3-13.1c0 0 0.9-2.5 1.4-3.8 1.1-2.9 3-5.4 3.7-8.4-0.3 8.5-0.8 17.4-2.8 25.5"/>
		</g>
		<path id="Layer" class="s3" d="m551.1 94.8q0-0.2-0.2-0.5-0.1-0.2-0.3-0.5-0.1-0.2-0.4-0.4-0.2-0.2-0.4-0.3-0.3-0.1-0.5-0.3-0.2-0.2-0.5-0.3-0.2-0.2-0.4-0.4-0.2-0.2-0.4-0.4-0.2-0.2-0.3-0.5-0.1-0.2-0.1-0.5 0-0.3 0.1-0.6 0-0.2 0.2-0.5c0.5-0.5 1.4-0.6 1.7-1.2 0.3-0.6-0.1-1.2-0.6-1.7-0.5-0.4-1.1-0.8-1.2-1.5q-0.1-0.3 0-0.6 0.1-0.3 0.3-0.6 0.2-0.2 0.5-0.4 0.2-0.2 0.5-0.3c0.9-0.3 1.8-0.3 2.6-0.6q0.5-0.2 1-0.5 0.5-0.3 0.8-0.7 0.4-0.5 0.6-1 0.3-0.5 0.3-1.1"/>
		<path id="Layer" class="s3" d="m555 101q-0.8-0.5-1.5-1.2-0.6-0.6-1.2-1.4-0.5-0.8-0.8-1.7-0.3-0.9-0.5-1.9-0.1-0.9-0.1-1.9 0-1 0.2-1.9 0.1-1 0.3-1.9 0.3-0.9 0.6-1.8c0.6-1.5 1.4-3.2 0.9-4.7q-0.2-0.3-0.3-0.6-0.2-0.3-0.3-0.6-0.2-0.3-0.3-0.6-0.1-0.3-0.3-0.6c-0.3-1.5 0.9-3 2.2-3.8q0.7-0.4 1.4-0.7 0.7-0.3 1.5-0.5 0.8-0.2 1.6-0.2 0.8-0.1 1.6 0-0.2 0.2-0.5 0.2-0.3 0.1-0.6 0-0.3-0.1-0.5-0.3-0.2-0.2-0.3-0.5-0.1-0.3 0-0.6 0-0.3 0.1-0.6 0.1-0.2 0.3-0.4 0.2-0.3 0.5-0.4 0.2-0.1 0.5-0.3 0.3-0.1 0.6-0.1 0.3-0.1 0.6-0.1 0.2 0 0.5 0 0.9 0.1 1.7 0.2 0.8 0.1 1.7 0.3 0.8 0.3 1.6 0.6 0.7 0.3 1.5 0.7-0.3-0.1-0.5-0.2-0.2-0.1-0.4-0.2-0.2-0.2-0.4-0.3-0.2-0.2-0.4-0.3-0.1-0.2-0.2-0.4-0.1-0.3-0.2-0.5 0-0.3 0.1-0.5 0.1-0.2 0.2-0.4c0.5-0.6 1.4-0.4 2.1-0.2 4.9 1.4 9.8 3.6 13.3 7.4 3.4 3.9 5 9.6 2.8 14.3"/>
		<path id="Layer" class="s2" d="m553.4 131.6c-1.3-0.4-2.5-1-3.6-1.8-1.1-0.8-2-1.9-2.7-3.1-0.6-1.2-1-2.5-1.2-3.8-0.1-1.4 0-2.8 0.4-4.1l9.1-31.1c0.5-1.9 1.4-3.6 2.6-5.2 1.2-1.5 2.7-2.8 4.5-3.8 1.7-1 3.6-1.6 5.5-1.8 2-0.2 3.9 0 5.8 0.5l0.7 0.3c1.8 0.6 3.4 1.6 4.7 2.8 1.4 1.2 2.6 2.7 3.4 4.3 0.9 1.6 1.4 3.4 1.6 5.2 0.2 1.9 0.1 3.7-0.4 5.5-1.9 6.9-4.1 14.5-5.4 18.1-2.8 7.4-10.7 5.9-10.7 5.9l-2 5.6c-0.4 1.2-1 2.3-1.9 3.3-0.8 0.9-1.8 1.8-2.9 2.4-1.2 0.6-2.4 0.9-3.7 1.1-1.2 0.1-2.5 0-3.8-0.3z"/>
		<path id="Layer" class="s8" d="m567 121.3c-7.6-2-8.6-8.9-8-8.2q0.8 1.1 1.8 2.1 1 0.9 2.1 1.7 1.1 0.8 2.3 1.4 1.2 0.7 2.5 1.1z"/>
		<path id="Layer" class="s3" d="m566 82.1q-1.2 0.6-2.2 1.5-1 0.8-1.7 1.9-0.8 1.1-1.2 2.4-0.5 1.3-0.6 2.6 0 0.5-0.1 0.9-0.1 0.5-0.2 1-0.1 0.4-0.2 0.9-0.1 0.4-0.3 0.9c-1 2-2.2 3.7-4.5 3.4-0.9-0.2-1.9-0.5-2.2-1.4q0-0.1 0-0.3 0-0.1 0-0.2 0-0.2 0-0.3 0.1-0.2 0.1-0.3c1.5-5.3 1.7-10.3 3.7-15.7q0.2-0.5 0.5-1 0.3-0.5 0.7-0.9 0.4-0.4 0.9-0.7 0.5-0.3 1.1-0.4c1.4-0.4 3.1-0.8 4.1 0.3 1 1 1.8 4 2.4 5.3z"/>
		<path id="Layer" class="s2" d="m554.4 99.4c-0.1 0.2-5.6-0.4-3.9-5.6 1.6-5.2 6.1-1.9 6.2-1.8 0 0-2.3 7.3-2.3 7.4z"/>
		<path id="Layer" class="s8" d="m553.2 97.2q-0.1 0-0.2 0-0.1 0.1-0.2 0-0.2 0-0.3 0-0.1-0.1-0.2-0.1-0.2-0.3-0.4-0.6-0.2-0.3-0.3-0.7 0-0.3 0-0.7 0-0.4 0.1-0.7 0.1-0.2 0.2-0.4 0.1-0.1 0.2-0.3 0.1-0.2 0.2-0.3 0.1-0.2 0.2-0.3 0.1-0.2 0.3-0.3 0.1-0.1 0.3-0.1 0.1-0.1 0.3-0.1 0.2 0 0.3 0 0.1 0 0.2 0 0 0 0.1 0.1 0 0 0.1 0.1 0 0 0.1 0.1 0 0 0 0.1 0.1 0 0.1 0.1 0 0 0 0.1 0 0 0 0.1c0 0.2-0.2 0.3-0.2 0.2q0 0 0-0.2 0-0.1 0-0.2-0.1-0.1-0.1-0.1-0.1-0.1-0.2-0.1 0-0.1-0.1-0.1-0.2 0-0.3 0.1-0.1 0-0.2 0.1-0.2 0-0.3 0.1-0.1 0.1-0.1 0.2-0.1 0.1-0.2 0.3-0.1 0.1-0.2 0.3-0.1 0.1-0.2 0.3-0.1 0.2-0.1 0.3-0.1 0.3-0.1 0.6-0.1 0.3 0 0.6 0 0.3 0.1 0.6 0.2 0.3 0.4 0.6 0 0 0.1 0 0.1 0.1 0.2 0.1 0.1 0 0.2 0.1 0.1 0 0.2 0c0.1-0.1 0.2-0.1 0.2-0.1 0 0 0 0.1-0.2 0.2z"/>
		<path id="Layer" class="s3" d="m564.8 75c5.3-1.9 14 1.3 14 1.3-0.3-0.9-0.4-2.1 0.5-2.5 0.6-0.3 1.4 0.3 1.9 0.8q0.7 0.9 1.2 1.8 0.6 0.9 0.9 2 0.3 1 0.5 2.1 0.1 1.1 0 2.1 0 0.6-0.1 1.2-0.2 0.5-0.4 1-0.2 0.5-0.6 1-0.3 0.5-0.7 0.8c-1.6 1.3-4 1-5.8 0-1.7-0.9-3.2-2.3-5-3.4-1.7-1-4.3-1.8-6.9-0.1 0 0-4.8-6.3 0.5-8.1z"/>
		<path id="Layer" class="s4" d="m567.6 70.6c0 0 0.1 0.4 0.4 1q0.1 0.3 0.3 0.6 0.2 0.3 0.4 0.6 0.2 0.3 0.4 0.6 0.3 0.2 0.5 0.5 0.4 0.4 0.8 0.7 0.4 0.3 0.8 0.6 0.5 0.3 0.9 0.6 0.5 0.3 1 0.5 0.3 0.1 0.5 0.3 0.3 0.1 0.6 0.2 0.3 0.1 0.6 0.2 0.3 0 0.6 0.1c0.9 0.2 1.8 0.3 2.7 0.6q0.4 0.1 0.7 0.2 0.3 0.1 0.6 0.3 0.4 0.1 0.7 0.3 0.2 0.2 0.5 0.4 0.3 0.3 0.5 0.5 0.2 0.2 0.4 0.5 0.2 0.3 0.4 0.6 0.1 0.3 0.2 0.6 0.1 0.3 0.2 0.6 0.1 0.2 0.1 0.5 0.1 0.3 0.1 0.6 0 0.3-0.1 0.6 0 0.3-0.1 0.5 0 0.3-0.1 0.5-0.1 0.3-0.2 0.5-0.2 0.2-0.3 0.5-0.2 0.3-0.5 0.5-0.2 0.3-0.5 0.5-0.3 0.3-0.7 0.4-0.3 0.2-0.7 0.3 0 0-0.1 0.1-0.1 0-0.2 0-0.1 0-0.2 0-0.1 0-0.3 0-0.2 0-0.2 0c0 0 0.4 0 1-0.2q0.3-0.2 0.6-0.3 0.3-0.2 0.6-0.4 0.3-0.3 0.5-0.5 0.2-0.3 0.4-0.6 0.1-0.2 0.2-0.4 0.2-0.2 0.2-0.5 0.1-0.2 0.2-0.4 0-0.3 0.1-0.5 0-0.3 0-0.5 0-0.3-0.1-0.6 0-0.3-0.1-0.5-0.1-0.3-0.2-0.5-0.1-0.3-0.2-0.6-0.2-0.3-0.4-0.5-0.1-0.3-0.4-0.5-0.2-0.2-0.4-0.4-0.2-0.2-0.5-0.4-0.3-0.2-0.6-0.3-0.3-0.2-0.6-0.3-0.3-0.1-0.6-0.2c-0.9-0.2-1.8-0.4-2.7-0.6q-0.3 0-0.6-0.1-0.3-0.1-0.6-0.2-0.3-0.1-0.6-0.3-0.3-0.1-0.6-0.2-0.5-0.3-1-0.5-0.4-0.3-0.9-0.7-0.4-0.3-0.8-0.6-0.4-0.4-0.8-0.8-0.3-0.3-0.5-0.5-0.2-0.3-0.4-0.6-0.2-0.4-0.4-0.7-0.2-0.3-0.3-0.7 0-0.1-0.1-0.2 0 0 0-0.1 0-0.1-0.1-0.2 0-0.1 0-0.2 0-0.1 0-0.1 0 0 0-0.1 0 0 0 0 0-0.1 0-0.1z"/>
		<path id="Layer" class="s4" d="m561.9 72.1c0 0 0.1 0.4 0.4 1q0.1 0.4 0.3 0.7 0.2 0.3 0.5 0.6 0.2 0.3 0.4 0.6 0.3 0.3 0.6 0.5 0.4 0.4 0.8 0.7 0.5 0.3 1 0.6 0.4 0.3 1 0.5 0.5 0.2 1 0.4 0.6 0.2 1.3 0.4 0.7 0.1 1.3 0.3 0.7 0.2 1.4 0.3 0.7 0.1 1.3 0.2 0.7 0.1 1.4 0.3 0.7 0.1 1.4 0.3 0.6 0.2 1.3 0.4 0.6 0.3 1.3 0.6 0.3 0.1 0.5 0.3 0.3 0.2 0.5 0.4 0.2 0.2 0.4 0.5 0.2 0.2 0.3 0.5 0.1 0.3 0.2 0.6 0 0.2 0.1 0.5 0 0.3-0.1 0.6 0 0.2 0 0.5-0.2 0.4-0.3 0.7-0.2 0.4-0.5 0.7-0.2 0.3-0.5 0.6-0.3 0.2-0.6 0.5-0.1 0-0.2 0.1-0.1 0-0.2 0.1-0.1 0-0.1 0.1-0.1 0-0.2 0-0.1 0.1-0.1 0.1 0 0-0.1 0 0 0 0 0-0.1 0-0.1 0c0 0 0.3-0.2 0.9-0.6q0.3-0.2 0.6-0.5 0.2-0.2 0.4-0.5 0.2-0.3 0.4-0.7 0.1-0.3 0.2-0.7 0.1-0.2 0.1-0.5 0-0.2 0-0.4 0-0.3-0.1-0.5 0-0.3-0.1-0.5-0.1-0.3-0.3-0.5-0.2-0.2-0.4-0.4-0.2-0.2-0.4-0.4-0.2-0.1-0.5-0.2-0.6-0.3-1.3-0.5-0.6-0.3-1.3-0.5-0.6-0.1-1.3-0.3-0.7-0.1-1.3-0.2-0.7-0.1-1.4-0.3-0.7-0.1-1.4-0.2-0.6-0.2-1.3-0.4-0.7-0.2-1.3-0.4-0.6-0.2-1.1-0.4-0.5-0.3-1-0.6-0.5-0.3-1-0.6-0.4-0.3-0.8-0.7-0.3-0.3-0.6-0.6-0.2-0.3-0.4-0.6-0.3-0.3-0.4-0.7-0.2-0.3-0.4-0.7 0-0.1 0-0.2-0.1-0.1-0.1-0.2 0-0.1 0-0.2-0.1-0.1-0.1-0.2 0 0 0 0 0-0.1 0-0.1 0 0 0-0.1 0 0 0-0.1z"/>
		<path id="Layer" class="s3" d="m578.8 99.1q-0.1 0.2-0.2 0.4-0.2 0.2-0.4 0.3-0.2 0.1-0.5 0.1-0.2 0-0.4 0-0.3-0.1-0.5-0.2-0.1-0.2-0.3-0.4-0.1-0.2-0.1-0.4 0-0.3 0-0.5 0.1-0.2 0.3-0.4 0.1-0.2 0.3-0.3 0.2-0.1 0.5-0.1 0.2-0.1 0.5 0 0.2 0.1 0.4 0.2 0.2 0.2 0.3 0.4 0.1 0.2 0.1 0.4 0.1 0.3 0 0.5z"/>
		<path id="Layer" class="s3" d="m581 98.4c-0.2 0.1-0.9-0.8-2.1-1.3-1.3-0.4-2.4-0.1-2.5-0.3-0.1-0.2 0.2-0.3 0.7-0.4q0.5-0.2 1-0.2 0.6 0 1.1 0.2 0.4 0.2 0.9 0.5 0.4 0.3 0.7 0.7c0.3 0.5 0.3 0.8 0.2 0.8z"/>
		<path id="Layer" class="s3" d="m566.4 95.5q0 0.2-0.2 0.4-0.2 0.2-0.4 0.3-0.2 0.1-0.4 0.2-0.3 0-0.5-0.1-0.2-0.1-0.4-0.2-0.2-0.1-0.3-0.4-0.1-0.2-0.2-0.4 0-0.2 0.1-0.5 0-0.2 0.2-0.4 0.2-0.2 0.4-0.3 0.2-0.1 0.4-0.1 0.3 0 0.5 0 0.2 0.1 0.4 0.3 0.2 0.1 0.3 0.3 0.1 0.2 0.2 0.5 0 0.2-0.1 0.4z"/>
		<path id="Layer" class="s3" d="m568.6 94.4c-0.2 0.1-0.8-0.9-2.1-1.3-1.2-0.4-2.4-0.1-2.4-0.3-0.1-0.2 0.2-0.3 0.7-0.5q0.2-0.1 0.5-0.1 0.2 0 0.5 0 0.2 0 0.5 0 0.2 0.1 0.5 0.2 0.2 0.1 0.4 0.2 0.3 0.1 0.5 0.3 0.2 0.1 0.3 0.3 0.2 0.2 0.4 0.4c0.3 0.4 0.3 0.7 0.2 0.8z"/>
		<path id="Layer" class="s3" d="m570 105.2q0.3 0 0.5 0.1 0.3 0 0.6 0 0.3 0.1 0.5 0.1 0.3 0.1 0.6 0.2c0.3 0.1 0.6 0.1 0.7-0.1q0.1-0.1 0.1-0.2 0.1-0.2 0.1-0.3 0-0.1 0-0.2 0-0.2 0-0.3c0-0.9-0.1-1.8-0.1-2.8q-0.1-0.8-0.1-1.7-0.1-0.9 0-1.8 0-0.9 0-1.8 0.1-0.9 0.1-1.8 0.2 0.9 0.3 1.8 0.1 0.9 0.1 1.8 0.1 0.9 0.1 1.8 0 0.8 0 1.7c0 1 0 1.9 0 2.8q0.1 0.2 0.1 0.3-0.1 0.2-0.1 0.4 0 0.1-0.1 0.3 0 0.2-0.1 0.3-0.1 0.1-0.2 0.1-0.1 0.1-0.1 0.1-0.1 0.1-0.2 0.1-0.1 0-0.2 0-0.1 0-0.2 0 0 0-0.1 0-0.1 0-0.2-0.1 0 0-0.1 0-0.3-0.1-0.5-0.1-0.3-0.1-0.5-0.2-0.3-0.1-0.5-0.2-0.3-0.1-0.5-0.3z"/>
		<path id="Layer" class="s3" d="m566 104.8c0.2 0-0.3 1.4 0.6 2.8 0.8 1.4 2.3 1.7 2.2 1.9 0 0.2-0.4 0.2-1 0q-0.3-0.1-0.5-0.2-0.3-0.2-0.6-0.4-0.2-0.2-0.4-0.4-0.2-0.2-0.4-0.5-0.1-0.2-0.3-0.5-0.1-0.3-0.1-0.6-0.1-0.3-0.1-0.6 0.1-0.3 0.1-0.6c0.1-0.6 0.4-0.9 0.5-0.9z"/>
		<path id="Layer" class="s3" d="m570.7 89.6c-0.3 0.3-1.5-0.3-3-0.6-1.6-0.4-2.9-0.4-3-0.7 0-0.2 0.3-0.5 0.9-0.6q0.6-0.2 1.2-0.2 0.6 0 1.2 0.1 0.5 0.2 1.1 0.4 0.5 0.3 1 0.7c0.5 0.4 0.7 0.8 0.6 0.9z"/>
		<path id="Layer" class="s3" d="m581.8 94.6c-0.3 0.3-1.1-0.3-2.1-0.7-1-0.4-2-0.5-2.1-0.9 0-0.1 0.2-0.4 0.7-0.5q0.5-0.1 0.9-0.1 0.5 0.1 1 0.2 0.4 0.2 0.8 0.5 0.4 0.3 0.7 0.7c0.2 0.4 0.3 0.7 0.1 0.8z"/>
		<path id="Layer" class="s4" d="m558.2 205.6q0.9 0.3 1.6 0.9 0.6 0.5 1.1 1.3 0.4 0.8 0.6 1.7 0.1 0.9-0.1 1.7l-6.7 2.7-1.6-6.5z"/>
		<path id="Layer" class="s4" d="m505.4 195c15.7-2.3 24.1 7.3 28.4 8.7 6.3 2 20.2 3.1 19.8 3.6q-0.6 0.8-1.3 1.4-0.7 0.6-1.6 1.1-0.8 0.6-1.6 0.9-0.9 0.4-1.9 0.6c-4.6 1.1-15.2-1.1-23.7-4.1-8.5-3-22-1.6-22-1.6z"/>
		<path id="Layer" class="s4" d="m555.9 211.4q0.1 0.5 0 1 0 0.5-0.2 1-0.2 0.4-0.4 0.8-0.5 0.5-1 0.8-0.5 0.4-1.1 0.5-0.7 0.2-1.3 0.1-0.6 0-1.2-0.2-0.6-0.2-1.1-0.5-0.6-0.2-1.1-0.5-0.6-0.4-1.1-0.7-0.5-0.4-0.9-0.8-0.2-0.1-0.4-0.3-0.2-0.1-0.3-0.3-0.2-0.2-0.3-0.4-0.1-0.2-0.1-0.5 0-0.1 0-0.3 0.1-0.2 0.1-0.3 0.1-0.2 0.2-0.4 0.1-0.1 0.2-0.2 0.3-0.4 0.8-0.8 0.4-0.3 0.8-0.6 0.5-0.3 0.9-0.5 0.5-0.2 1.1-0.3 0.5-0.2 1-0.3 0.5-0.1 1-0.1 0.6-0.1 1.1-0.2 0.5 0 1.1 0l-0.2-0.2q0.4 0.3 0.7 0.7 0.3 0.4 0.6 0.8 0.3 0.4 0.5 0.9 0.2 0.4 0.4 0.9 0.2 0.4 0.2 0.9z"/>
		<path id="Layer" class="s3" d="m545.9 210q0-0.1 0.1-0.2 0-0.1 0.1-0.2 0-0.1 0.1-0.2 0-0.1 0.1-0.2 0.2-0.2 0.5-0.4 0.2-0.2 0.4-0.3 0.3-0.2 0.6-0.3 0.2-0.2 0.5-0.2 0.4-0.2 0.9-0.3 0.4-0.1 0.9-0.1 0.4 0 0.9 0 0.4 0 0.9 0.1 0.5 0 1 0.2 0.5 0.2 1 0.5 0.5 0.3 0.9 0.7 0.4 0.4 0.7 0.9 0.1 0.2 0.2 0.5 0.1 0.3 0.2 0.6 0.1 0.2 0.1 0.5 0 0.3 0 0.6 0 0.3 0 0.5-0.1 0.3-0.2 0.6-0.1 0.2-0.2 0.4-0.2 0.3-0.3 0.5-0.2 0.2-0.3 0.4-0.2 0.1-0.4 0.3-0.2 0.1-0.4 0.2-0.2 0.1-0.5 0.2-0.2 0.1-0.4 0.1-0.2 0.1-0.4 0.1-0.2 0-0.4 0-0.2 0-0.4 0-0.3 0-0.6 0-0.3-0.1-0.6-0.2-0.3 0-0.6-0.1-0.3-0.1-0.6-0.3-0.3-0.1-0.6-0.2 0 0 0 0 0 0-0.1-0.1 0 0 0 0 0 0-0.1 0h0.3l0.6 0.3q0.2 0.1 0.5 0.2 0.3 0 0.6 0.1 0.3 0.1 0.6 0.1 0.3 0.1 0.6 0.1 0.4 0 0.8 0 0.5-0.1 0.8-0.3 0.4-0.2 0.8-0.4 0.3-0.3 0.6-0.6 0.3-0.4 0.5-0.9 0.2-0.5 0.2-1.1 0-0.5-0.1-1-0.2-0.6-0.5-1-0.2-0.5-0.6-0.8-0.4-0.4-0.8-0.7-0.5-0.3-1-0.5-0.5-0.2-1-0.3-0.5 0-0.9-0.1-0.4 0-0.9 0.1-0.4 0-0.8 0.1-0.5 0.1-0.9 0.2-0.3 0.1-0.5 0.2-0.3 0.1-0.6 0.3-0.2 0.1-0.4 0.3-0.3 0.2-0.5 0.4 0 0.1-0.1 0.1-0.1 0.1-0.1 0.2-0.1 0.1-0.1 0.2-0.1 0.1-0.1 0.2z"/>
		<path id="Layer" class="s6" d="m548.8 210.2q-0.1-0.1-0.2-0.2-0.1-0.1-0.2-0.1-0.1-0.1-0.2-0.2-0.1-0.1-0.2-0.2-0.2-0.1-0.3-0.1-0.1-0.1-0.2-0.2-0.2 0-0.3-0.1-0.1 0-0.2-0.1 0.2 0.1 0.5 0.2 0.2 0.1 0.5 0.2 0.2 0.2 0.4 0.4 0.2 0.2 0.3 0.4z"/>
		<path id="Layer" class="s6" d="m550.9 210.3c0 0-0.3-0.3-0.7-0.6-0.4-0.4-0.8-0.6-0.8-0.6q0.1 0 0.3 0.1 0.1 0 0.2 0.1 0.1 0 0.2 0.1 0.1 0.1 0.2 0.2 0.1 0.1 0.2 0.1 0.1 0.1 0.1 0.2 0.1 0.1 0.2 0.2 0.1 0.1 0.1 0.2z"/>
		<path id="Layer" class="s6" d="m551.8 215c0 0 0-0.2-0.1-0.6q-0.1-0.2-0.2-0.3 0-0.2-0.1-0.4-0.1-0.1-0.2-0.3-0.1-0.1-0.1-0.3-0.2-0.1-0.3-0.3-0.1-0.1-0.2-0.3-0.1-0.1-0.3-0.2-0.1-0.1-0.2-0.3c-0.3-0.2-0.5-0.3-0.5-0.3q0 0 0.1 0 0.1 0.1 0.1 0.1 0.1 0.1 0.2 0.1 0 0 0.1 0.1 0.1 0.1 0.3 0.2 0.1 0.2 0.2 0.3 0.2 0.1 0.3 0.3 0.1 0.1 0.2 0.3 0.1 0.1 0.2 0.3 0.1 0.1 0.2 0.3 0 0.2 0.1 0.3 0.1 0.2 0.1 0.4 0 0.1 0 0.1 0.1 0.1 0.1 0.2 0 0.1 0 0.1 0 0.1 0 0.2z"/>
		<path id="Layer" class="s6" d="m554 213.3q0-0.1 0-0.2 0-0.1 0-0.1 0-0.1 0-0.2 0-0.1 0-0.1 0.1-0.2 0-0.4 0-0.2 0-0.3 0-0.2 0-0.4 0-0.1 0-0.3-0.1-0.2-0.1-0.4-0.1-0.1-0.1-0.3-0.1-0.2-0.1-0.3-0.1-0.2-0.1-0.4c-0.2-0.3-0.3-0.5-0.3-0.5 0 0 0 0 0.1 0.1q0.1 0.1 0.1 0.1 0 0.1 0 0.1 0.1 0.1 0.1 0.1 0 0.1 0 0.1 0.1 0.2 0.2 0.3 0 0.2 0.1 0.4 0 0.2 0.1 0.3 0 0.2 0 0.4 0.1 0.1 0.1 0.3 0 0.2 0 0.4 0 0.1 0 0.3 0 0.2 0 0.4 0 0 0 0.1 0 0 0 0.1 0 0 0 0.1 0 0 0 0.1 0 0 0 0 0 0.1 0 0.1 0 0 0 0 0 0-0.1 0z"/>
		<path id="Layer" class="s3" d="m554.1 209.1q-0.9 0.3-1.6 0.6-0.8 0.4-1.5 0.9-0.7 0.5-1.3 1.1-0.6 0.6-1.2 1.3 0.1-0.1 0.2-0.2 0-0.1 0.1-0.2 0.1-0.2 0.1-0.3 0.1-0.1 0.2-0.2 0.4-0.4 0.8-0.9 0.5-0.4 1-0.7 0.5-0.4 1.1-0.7 0.5-0.3 1.1-0.5 0.1 0 0.2-0.1 0.2 0 0.3 0 0.1-0.1 0.2-0.1 0.1 0 0.3 0z"/>
		<path id="Layer" class="s3" d="m550.7 208q-0.3 0.2-0.5 0.5-0.3 0.2-0.5 0.5-0.3 0.2-0.5 0.5-0.2 0.3-0.3 0.6-0.2 0.3-0.3 0.6-0.1 0.4-0.2 0.7-0.1 0.3-0.2 0.7 0 0.3-0.1 0.7 0-0.1 0-0.2 0-0.1 0-0.2 0-0.1 0-0.3 0-0.1 0-0.2 0.1-0.2 0.1-0.5 0-0.2 0.1-0.5 0.1-0.2 0.2-0.4 0.1-0.3 0.2-0.5 0.1-0.2 0.3-0.4 0.1-0.3 0.3-0.5 0.2-0.2 0.3-0.3 0.2-0.2 0.4-0.4 0.1 0 0.2-0.1 0.1-0.1 0.1-0.1 0.1-0.1 0.2-0.1 0.1-0.1 0.2-0.1z"/>
		<path id="Layer" class="s3" d="m554.4 215c0 0 0-0.3-0.2-0.8q-0.1-0.2-0.3-0.5-0.1-0.2-0.2-0.4-0.2-0.2-0.4-0.4-0.1-0.2-0.3-0.3c-1.3-1-2.5-1.6-2.4-1.7q0.1 0.1 0.2 0.1 0.1 0.1 0.2 0.1 0.1 0 0.2 0.1 0.1 0 0.2 0.1 0.2 0.1 0.4 0.2 0.3 0.2 0.5 0.3 0.2 0.1 0.4 0.3 0.2 0.2 0.4 0.3 0.2 0.2 0.4 0.4 0.2 0.2 0.3 0.4 0.2 0.2 0.3 0.5 0.1 0.2 0.2 0.4 0 0.1 0.1 0.2 0 0.2 0 0.3 0 0.1 0 0.2 0 0.1 0 0.2z"/>
		<path id="Layer" class="s3" d="m526 207.8q-0.2 0-0.3 0-0.2 0-0.4 0-0.1-0.1-0.3-0.1-0.2-0.1-0.3-0.1c-0.9-0.2-2.1-0.5-3.6-0.8q-1.5-0.2-3-0.5-1.5-0.2-3-0.4-1.5-0.1-3-0.3-1.5-0.1-3-0.1-0.8-0.1-1.7-0.1-0.8 0-1.6 0.1-0.8 0-1.7 0.2-0.8 0.1-1.6 0.3-0.6 0.2-1.3 0.4-0.6 0.2-1.2 0.5-0.6 0.3-1.2 0.7-0.5 0.3-1.1 0.7-0.4 0.4-0.9 0.9-0.5 0.4-0.9 0.8-0.4 0.5-0.8 1-0.4 0.5-0.8 1 0.1-0.2 0.2-0.3 0-0.2 0.1-0.3 0.1-0.2 0.2-0.3 0.1-0.2 0.2-0.3 0.3-0.4 0.6-0.8 0.2-0.3 0.6-0.7 0.3-0.3 0.6-0.6 0.3-0.3 0.7-0.6 0.5-0.5 1.1-0.9 0.6-0.3 1.2-0.7 0.6-0.3 1.3-0.5 0.6-0.3 1.3-0.5 0.8-0.2 1.7-0.3 0.8-0.2 1.6-0.2 0.9-0.1 1.7-0.1 0.9 0 1.7 0 1.5 0.1 3 0.2 1.6 0.2 3.1 0.3 1.5 0.2 3 0.5 1.5 0.3 3 0.6c1.5 0.3 2.7 0.7 3.5 0.9q0.2 0 0.4 0.1 0.1 0 0.3 0.1 0.1 0 0.3 0.1 0.1 0.1 0.3 0.1z"/>
		<path id="Layer" class="s3" d="m426.6 194.3q0.1-0.1 0.2-0.2 0 0 0.1-0.1 0.1-0.1 0.2-0.1 0.1-0.1 0.2-0.2 0.2-0.1 0.5-0.3 0.3-0.2 0.5-0.3 0.3-0.2 0.6-0.3 0.3-0.1 0.6-0.3 1-0.4 2.2-0.7 1.1-0.2 2.2-0.3 1.2-0.1 2.4 0 1.1 0.1 2.2 0.4 0.8 0.1 1.6 0.4 0.7 0.3 1.4 0.7 0.8 0.3 1.4 0.8 0.7 0.4 1.3 1 0.7 0.6 1.3 1.2 0.6 0.7 1.2 1.4 0.6 0.7 1.2 1.4 0.5 0.7 1 1.5 0.6 0.8 1.2 1.7 0.5 0.8 1.1 1.6 0.6 0.8 1.3 1.6 0.6 0.8 1.2 1.5 0.7 0.8 1.4 1.6 0.8 0.8 1.5 1.6 0.8 0.7 1.5 1.5 0.8 0.7 1.6 1.4c4.4 3.9 9.2 7 14 8.6q0.9 0.2 1.7 0.5 0.9 0.2 1.8 0.3 0.9 0.2 1.8 0.3 0.9 0 1.8 0 0.8 0.1 1.5 0 0.8-0.1 1.6-0.3 0.7-0.2 1.4-0.5 0.8-0.3 1.4-0.6 0.6-0.4 1.1-0.8 0.5-0.4 1-0.8 0.4-0.5 0.8-1 0.5-0.4 0.8-1c1-1.2 1.7-2.3 2.3-3.2l1.4-2.1q0-0.1 0.1-0.2 0.1 0 0.1-0.1 0.1-0.1 0.1-0.2 0.1-0.1 0.2-0.2-0.1 0.1-0.1 0.2-0.1 0.1-0.1 0.2-0.1 0.1-0.1 0.2-0.1 0.1-0.1 0.2l-1.3 2.1c-0.6 0.9-1.3 2-2.2 3.3q-0.4 0.5-0.8 1-0.4 0.6-0.9 1-0.5 0.5-1 0.9-0.5 0.4-1.1 0.8-0.7 0.4-1.4 0.7-0.8 0.3-1.5 0.5-0.8 0.2-1.6 0.3-0.8 0.1-1.6 0.1-0.9 0-1.9-0.1-0.9-0.1-1.8-0.2-0.9-0.2-1.8-0.4-0.9-0.2-1.7-0.5c-5-1.6-9.8-4.7-14.3-8.6q-0.8-0.7-1.6-1.4-0.7-0.8-1.5-1.5-0.8-0.8-1.5-1.6-0.7-0.8-1.4-1.7-0.7-0.7-1.3-1.5-0.6-0.8-1.2-1.6-0.6-0.8-1.2-1.7-0.5-0.8-1.1-1.6-0.5-0.8-1-1.5-0.6-0.7-1.2-1.4-0.5-0.7-1.2-1.3-0.6-0.7-1.2-1.3-0.6-0.5-1.3-1-0.6-0.4-1.3-0.8-0.7-0.3-1.4-0.6-0.7-0.3-1.5-0.5-1.1-0.3-2.2-0.4-1.2-0.1-2.3 0-1.1 0-2.2 0.3-1.1 0.2-2.2 0.6-0.4 0.2-0.8 0.4-0.3 0.2-0.7 0.4-0.4 0.1-0.7 0.4-0.4 0.2-0.7 0.4z"/>
		<path id="Layer" class="s6" d="m451.5 185.4h-0.7q-0.7 0-1.9 0.2-1.6 0.2-3.1 0.5-1.6 0.4-3.1 1-1.4 0.6-2.8 1.3-1.4 0.8-2.7 1.7c-0.7 0.4-1.2 0.9-1.5 1.1l-0.6 0.5q0.3-0.2 0.5-0.4 0.2-0.3 0.5-0.5 0.2-0.2 0.5-0.4 0.3-0.2 0.5-0.4 1.3-0.9 2.7-1.7 1.4-0.7 2.9-1.3 1.5-0.6 3-1 1.6-0.3 3.2-0.5 0.3 0 0.6-0.1 0.3 0 0.7 0 0.3 0 0.6 0 0.4 0 0.7 0z"/>
		<path id="Layer" class="s6" d="m467.6 195.1l-0.8 0.1q-0.7 0.1-2 0.4-0.8 0.1-1.6 0.4-0.8 0.2-1.6 0.4-0.8 0.3-1.5 0.6-0.8 0.3-1.6 0.7-0.7 0.4-1.4 0.8-0.8 0.4-1.5 0.8-0.7 0.5-1.4 1-0.6 0.5-1.3 1-1 0.8-1.5 1.3l-0.5 0.5q0.2-0.2 0.5-0.5 0.2-0.2 0.5-0.4 0.2-0.3 0.5-0.5 0.2-0.2 0.5-0.5 0.6-0.5 1.3-1 0.7-0.5 1.4-1 0.7-0.4 1.4-0.8 0.7-0.4 1.5-0.8 0.7-0.4 1.5-0.7 0.8-0.3 1.6-0.5 0.8-0.3 1.6-0.5 0.8-0.2 1.6-0.4 0.3-0.1 0.7-0.1 0.3-0.1 0.7-0.1 0.3-0.1 0.7-0.1 0.3 0 0.6-0.1z"/>
		<path id="Layer" class="s6" d="m467.1 217.9q-0.1-0.1-0.1-0.2 0-0.1 0-0.2 0-0.1-0.1-0.2 0-0.1 0-0.2 0-0.2 0-0.5-0.1-0.3-0.1-0.5 0-0.3 0-0.5 0-0.3 0.1-0.6 0-0.9 0.2-1.7 0.1-0.9 0.4-1.7 0.2-0.9 0.6-1.7 0.3-0.8 0.7-1.5 0.5-0.8 1-1.5 0.5-0.8 1-1.5 0.5-0.7 1-1.4 0.6-0.6 1.2-1.3c1.2-1.3 2-2.1 2-2.1l-0.5 0.6-1.4 1.6q-0.6 0.6-1.1 1.3-0.6 0.7-1.1 1.4-0.5 0.7-1 1.4-0.5 0.7-0.9 1.5-0.4 0.8-0.8 1.6-0.3 0.8-0.6 1.6-0.3 0.8-0.4 1.7-0.2 0.8-0.3 1.7 0 0.3 0 0.5 0 0.3 0 0.6 0 0.2 0 0.5 0 0.3 0 0.5c0 0.3 0.1 0.5 0.1 0.6z"/>
		<path id="Layer" class="s6" d="m484.7 207.8q-0.1-0.1-0.1-0.2-0.1-0.1-0.1-0.1 0-0.1-0.1-0.2 0-0.1 0-0.2-0.1-0.5-0.2-1-0.1-0.5-0.1-1 0-0.5 0.1-1 0-0.5 0.1-0.9 0-0.1 0.1-0.2 0-0.1 0-0.2 0.1-0.1 0.1-0.2 0-0.1 0.1-0.2c0-0.1-0.1 0.3-0.2 0.8q-0.1 0.5-0.1 0.9-0.1 0.5-0.1 1 0 0.5 0.1 1 0.1 0.5 0.2 0.9c0.1 0.5 0.2 0.8 0.2 0.8z"/>
		<path id="Layer" class="s6" d="m487.7 220q-0.2-0.1-0.4-0.3-0.2-0.1-0.4-0.3-0.2-0.1-0.4-0.3-0.2-0.1-0.4-0.3-0.9-0.8-1.7-1.7-0.8-0.9-1.4-2-0.6-1-1.1-2.1-0.5-1.1-0.8-2.3 0-0.3-0.1-0.5 0-0.3-0.1-0.5 0-0.3 0-0.5-0.1-0.3-0.1-0.5c0-0.2 0 0.2 0.1 0.5 0.1 0.4 0.2 0.8 0.3 1.4q0.3 1.2 0.8 2.3 0.5 1.1 1.1 2.1 0.6 1.1 1.4 2 0.8 0.9 1.7 1.7 0.1 0.1 0.2 0.3 0.2 0.1 0.3 0.2 0.2 0.1 0.3 0.2 0.1 0.1 0.3 0.2 0.4 0.4 0.4 0.4z"/>
		<path id="Layer" class="s6" d="m501.2 206.2c0 0-0.5-0.2-1.3-0.7q-0.4-0.2-0.7-0.5-0.4-0.2-0.8-0.5-0.3-0.2-0.7-0.5-0.3-0.2-0.7-0.5-0.3-0.3-0.7-0.6-0.3-0.3-0.6-0.6-0.4-0.3-0.7-0.6-0.3-0.3-0.6-0.6c-0.6-0.7-1-1.1-1-1.1l0.3 0.3 0.7 0.8q0.3 0.3 0.6 0.6 0.4 0.3 0.7 0.6 0.3 0.3 0.6 0.5 0.4 0.3 0.7 0.6 0.4 0.3 0.7 0.5 0.4 0.3 0.8 0.6 0.3 0.2 0.7 0.4 0.4 0.3 0.7 0.5l1 0.6z"/>
		<path id="Layer" class="s6" d="m510.8 204.8q0 0 0-0.3c0-0.3 0-0.8 0-1.1 0-0.9-0.2-2.2-0.4-3.6-0.1-1.3-0.4-2.6-0.6-3.4l-0.2-1.1q-0.1-0.4-0.1-0.4c0 0 0 0.1 0.1 0.4 0.1 0.2 0.2 0.6 0.3 1 0.2 0.9 0.5 2.1 0.6 3.5q0.1 0.4 0.2 0.9 0 0.4 0 0.9 0.1 0.4 0.1 0.9 0 0.4 0 0.8 0 0.7 0 1.1c0 0.3 0 0.4 0 0.4z"/>
		<path id="Layer" class="s6" d="m523.3 198q0 0 0 0.1 0 0 0 0.1 0 0 0 0 0 0.1 0 0.1c0 0.3-0.1 0.6-0.1 0.9-0.1 0.8-0.3 1.8-0.5 2.9-0.2 1.1-0.5 2.1-0.7 2.9q-0.1 0.4-0.3 0.8c-0.1 0.3-0.1 0.3-0.1 0.3q0 0 0-0.1 0 0 0-0.1 0.1 0 0.1 0 0-0.1 0-0.1 0.1-0.5 0.2-0.9c0.2-0.7 0.5-1.7 0.7-2.8 0.3-1.1 0.4-2.1 0.5-2.9 0-0.3 0.1-0.6 0.1-0.9z"/>
		<path id="Layer" class="s6" d="m531.8 206.3q0-0.2 0-0.4 0-0.2 0.1-0.4 0-0.3 0-0.5 0.1-0.2 0.1-0.4 0.1-0.2 0.1-0.4 0.1-0.2 0.1-0.4 0.1-0.2 0.1-0.4 0.1-0.2 0.1-0.4 0 0.2 0 0.4-0.1 0.2-0.1 0.4 0 0.3-0.1 0.5 0 0.2-0.1 0.4 0 0.2 0 0.4-0.1 0.2-0.1 0.4-0.1 0.2-0.1 0.4-0.1 0.2-0.1 0.4z"/>
		<path id="Layer" class="s6" d="m545.8 210.9c0 0 0-0.2 0.1-0.7 0-0.4 0-1 0-1.6 0-0.4 0-0.9 0-1.6v-0.5q0-0.1 0-0.1 0 0 0 0 0 0 0-0.1 0 0 0 0 0.1 0.1 0.1 0.2 0 0 0 0.1 0 0.1 0 0.2 0 0.1 0 0.2c0 0.4 0 1 0 1.6q0 0.2 0 0.4 0 0.2 0 0.4-0.1 0.2-0.1 0.5 0 0.2 0 0.4 0 0 0 0.1-0.1 0.1-0.1 0.2 0 0.1 0 0.2 0 0 0 0.1z"/>
		<path id="Layer" class="s4" d="m548.7 214.1c-3.2-1.1-6.8-0.5-10 0.6-3.2 1.2-7.5 3.3-10.8 4.8-3.1 1.3-5.3 1.3-8.6 0.6-3.3-0.7-6.4-3.3-6.9-6.7h-2.4q0-1 0.1-2 0.1-1 0.4-1.9 0.2-1 0.6-1.9 0.3-1 0.8-1.8c4 2 8.7 1.9 13.2 1.3 4.4-0.6 8.9-1.5 13.4-0.8 4.4 0.7 8.9 3.5 10 7.9"/>
		<path id="Layer" class="s3" d="m514.2 206.8q0 0.1-0.1 0.2 0 0.1-0.1 0.3 0 0.1-0.1 0.2 0 0.1-0.1 0.2-0.1 0.3-0.2 0.6-0.1 0.3-0.2 0.6-0.1 0.2-0.2 0.5-0.1 0.3-0.2 0.6-0.1 0.3-0.2 0.6 0 0.3-0.1 0.6-0.1 0.3-0.1 0.6-0.1 0.3-0.1 0.6 0 0.1 0 0.3 0 0.1 0 0.2 0 0.1-0.1 0.3 0 0.1 0 0.2 0-0.1 0-0.2 0-0.2 0-0.3 0-0.1 0-0.3 0-0.1 0-0.2 0-0.3 0.1-0.6 0-0.3 0-0.6 0.1-0.3 0.2-0.6 0-0.3 0.1-0.6 0.1-0.3 0.2-0.6 0.1-0.3 0.2-0.6 0.1-0.3 0.3-0.6 0.1-0.3 0.2-0.5 0.1-0.2 0.1-0.3 0.1-0.1 0.1-0.2 0.1-0.1 0.2-0.2 0-0.1 0.1-0.2z"/>
		<path id="Layer" class="s3" d="m512.6 211.5q-0.2 0-0.3 0-0.2 0-0.4 0-0.1 0-0.3-0.1-0.1 0-0.3 0-0.1 0-0.3 0-0.1 0-0.3-0.1-0.1 0-0.3 0-0.2 0-0.3-0.1 0.1 0 0.3 0 0.2 0 0.3 0 0.2 0 0.3 0 0.2 0 0.3 0 0.2 0 0.4 0 0.1 0.1 0.3 0.1 0.1 0 0.3 0.1 0.1 0 0.3 0.1z"/>
		<path id="Layer" class="s3" d="m513.1 208.8c0 0-0.5-0.3-1.1-0.5-0.6-0.2-1.2-0.2-1.2-0.3q0.4 0 0.7 0 0.3 0 0.6 0.1 0.3 0.1 0.5 0.3 0.3 0.2 0.5 0.4z"/>
		<path id="Layer" class="s3" d="m517.7 207.4h0.7q0.7 0 2 0 0.9 0 1.8-0.1 1 0 1.9-0.1 0.9-0.1 1.8-0.3 0.9-0.1 1.8-0.3 1.4-0.3 2.7-0.4 1.4-0.2 2.8-0.2 1.4-0.1 2.8 0 1.3 0.1 2.7 0.3 0.8 0.2 1.6 0.4 0.8 0.2 1.6 0.5 0.7 0.3 1.5 0.7 0.7 0.4 1.4 0.8 0.7 0.6 1.3 1.2 0.7 0.6 1.2 1.3 0.5 0.8 0.9 1.6 0.5 0.7 0.7 1.6l0.1 0.2-0.2-0.1q-0.4-0.2-0.7-0.3-0.4-0.1-0.8-0.2-0.4-0.1-0.7-0.2-0.4-0.1-0.8-0.1-1 0-1.9 0.1-1 0-1.9 0.2-0.9 0.2-1.8 0.4-1 0.3-1.8 0.6-0.9 0.3-1.7 0.6-0.8 0.3-1.7 0.7-0.8 0.3-1.6 0.7-0.8 0.3-1.6 0.7c-1 0.5-2 1-3 1.4q-0.4 0.1-0.7 0.3-0.4 0.1-0.8 0.3-0.3 0.1-0.7 0.2-0.4 0.1-0.8 0.2-0.6 0.2-1.3 0.3-0.7 0.1-1.4 0.1-0.7 0.1-1.4 0-0.8 0-1.5-0.1-0.5-0.1-1.1-0.3-0.6-0.1-1.1-0.3-0.5-0.2-1.1-0.5-0.5-0.2-1-0.6-0.3-0.2-0.7-0.5-0.3-0.3-0.6-0.6-0.3-0.3-0.6-0.7-0.2-0.3-0.5-0.7-0.1-0.2-0.2-0.5-0.2-0.2-0.3-0.4-0.1-0.3-0.2-0.6-0.1-0.2-0.2-0.5-0.1-0.7-0.1-0.7 0.1 0.3 0.2 0.7 0.1 0.3 0.2 0.7 0.2 0.3 0.3 0.7 0.2 0.3 0.4 0.6 0.2 0.4 0.5 0.7 0.3 0.3 0.6 0.7 0.3 0.3 0.6 0.5 0.3 0.3 0.7 0.6 0.5 0.3 1 0.5 0.5 0.3 1.1 0.5 0.5 0.2 1.1 0.3 0.5 0.2 1.1 0.2 0.7 0.2 1.4 0.2 0.7 0 1.4 0 0.7 0 1.3-0.1 0.7-0.1 1.4-0.3 0.4-0.1 0.8-0.2 0.3-0.1 0.7-0.3 0.4-0.1 0.7-0.3 0.4-0.1 0.7-0.3 1.5-0.6 3-1.3 0.8-0.4 1.6-0.8 0.9-0.4 1.7-0.7 0.8-0.3 1.6-0.6 0.9-0.4 1.7-0.6 0.9-0.4 1.8-0.7 0.9-0.2 1.9-0.4 0.9-0.2 1.9-0.2 1-0.1 1.9-0.1 0.4 0 0.8 0.1 0.4 0.1 0.8 0.2 0.4 0.1 0.8 0.2 0.3 0.2 0.7 0.4l-0.1 0.1q-0.3-0.9-0.7-1.6-0.4-0.8-0.9-1.5-0.5-0.7-1.2-1.3-0.6-0.7-1.3-1.2-0.7-0.4-1.4-0.8-0.7-0.4-1.5-0.7-0.7-0.3-1.5-0.5-0.8-0.2-1.6-0.4-1.4-0.2-2.7-0.3-1.4-0.1-2.8 0-1.3 0-2.7 0.2-1.4 0.1-2.7 0.4-0.9 0.2-1.8 0.3-0.9 0.1-1.9 0.2-0.9 0.1-1.8 0.1-0.9 0.1-1.8 0.1c-1.8-0.1-2.8-0.1-2.8-0.1z"/>
		<path id="Layer" class="s6" d="m517.5 219.5q0 0 0-0.1 0 0 0-0.1-0.1 0-0.1-0.1 0-0.1 0-0.1-0.1-0.2-0.1-0.3-0.1-0.2-0.1-0.4-0.1-0.1-0.1-0.3 0-0.1-0.1-0.3-0.2-1.1-0.3-2.2 0-1.1 0.1-2.2 0-1.1 0.3-2.1 0.2-1.1 0.6-2.2 0-0.1 0.1-0.3 0-0.1 0.1-0.3 0.1-0.1 0.1-0.3 0.1-0.1 0.2-0.3 0 0 0-0.1 0 0 0.1-0.1 0 0 0-0.1 0.1-0.1 0.1-0.1c0 0-0.3 0.6-0.6 1.7q-0.2 0.5-0.3 1-0.2 0.6-0.3 1.1-0.1 0.5-0.1 1.1-0.1 0.5-0.2 1 0 0.6 0 1.1 0 0.6 0 1.1 0.1 0.6 0.1 1.1 0.1 0.5 0.2 1.1c0.2 1.1 0.4 1.7 0.3 1.7z"/>
		<path id="Layer" class="s6" d="m526.2 213.7q0 0.1 0.1 0.2 0 0.1 0 0.2 0 0.1 0 0.2 0.1 0.1 0.1 0.2c0 0.5 0.2 1.2 0.4 2 0.4 1.5 0.8 2.8 0.7 2.8q0-0.1-0.1-0.2 0-0.1 0-0.2-0.1-0.1-0.1-0.2-0.1-0.1-0.1-0.2c-0.2-0.5-0.4-1.2-0.6-2q-0.1-0.2-0.1-0.5-0.1-0.2-0.1-0.5-0.1-0.2-0.1-0.5-0.1-0.2-0.1-0.5 0-0.1 0-0.2 0-0.1 0-0.2 0-0.1 0-0.2 0-0.1 0-0.2z"/>
		<path id="Layer" class="s6" d="m525 210.3q0 0.2 0 0.4 0.1 0.2 0.1 0.4 0 0.2 0 0.4 0 0.2 0 0.4c0.1 0.9 0.2 1.6 0.2 1.6q-0.2-0.4-0.3-0.8-0.1-0.4-0.1-0.8 0-0.4 0-0.8 0-0.4 0.1-0.8z"/>
		<path id="Layer" class="s6" d="m527.1 206.8c0.1 0-0.2 0.6-0.3 1.5-0.2 0.8-0.2 1.5-0.2 1.5q-0.1-0.2-0.1-0.4 0-0.2 0-0.4 0-0.2 0-0.4 0-0.2 0.1-0.4 0-0.2 0-0.4 0.1-0.2 0.1-0.3 0.1-0.2 0.2-0.4 0.1-0.2 0.2-0.3z"/>
		<path id="Layer" class="s6" d="m534 208.7q-0.2-0.2-0.4-0.5-0.1-0.3-0.2-0.7-0.1-0.3-0.1-0.6 0-0.4 0.1-0.7c0.1 0 0 0.6 0.2 1.3 0.2 0.7 0.5 1.2 0.4 1.2z"/>
		<path id="Layer" class="s6" d="m539.4 214.3q-0.1-0.1-0.2-0.2 0 0-0.1-0.1-0.1-0.1-0.1-0.3-0.1-0.1-0.2-0.2-0.1-0.2-0.3-0.5-0.1-0.2-0.3-0.5-0.1-0.2-0.2-0.5-0.1-0.3-0.3-0.6-0.1-0.2-0.2-0.5-0.1-0.3-0.2-0.6-0.1-0.2-0.2-0.5 0-0.3-0.1-0.6-0.1-0.1-0.1-0.2 0-0.1 0-0.3-0.1-0.1-0.1-0.2 0-0.2 0-0.3 0.1 0.1 0.1 0.2 0 0.2 0.1 0.3 0 0.1 0.1 0.2 0 0.1 0 0.2c0.2 0.6 0.5 1.4 0.8 2.2 0.4 0.9 0.8 1.6 1 2.1q0.1 0.1 0.2 0.2 0 0.2 0.1 0.3 0 0.1 0.1 0.2 0.1 0.1 0.1 0.2z"/>
		<path id="Layer" class="s6" d="m540.9 207.1c0 0-0.1 0.2-0.3 0.4-0.2 0.2-0.3 0.5-0.3 0.4-0.1 0 0-0.2 0.1-0.5 0.2-0.3 0.5-0.4 0.5-0.3z"/>
		<path id="Layer" class="s6" d="m548.8 214.5q0 0-0.1 0 0-0.1 0-0.1-0.1 0-0.1-0.1 0 0-0.1 0-0.5-0.5-1-0.8-0.6-0.3-1.1-0.6-0.6-0.3-1.3-0.4-0.6-0.2-1.2-0.2-0.8-0.1-1.5-0.1-0.8 0-1.5 0.1-0.8 0.1-1.5 0.2-0.7 0.2-1.4 0.4-0.9 0.3-1.8 0.6-0.8 0.4-1.7 0.7-0.8 0.4-1.7 0.7-0.8 0.4-1.6 0.8-0.8 0.4-1.7 0.7-0.9 0.4-1.7 0.6-0.9 0.3-1.8 0.4-0.9 0.2-1.8 0.3-0.8 0.1-1.5 0.1-0.8 0-1.5-0.1-0.8 0-1.5-0.2-0.8-0.1-1.5-0.3-0.5-0.1-1-0.3-0.5-0.2-0.9-0.3-0.5-0.2-1-0.4-0.4-0.3-0.9-0.5-0.6-0.4-0.9-0.6l-0.3-0.2 0.3 0.2q0.3 0.2 0.9 0.6 1.1 0.6 2.3 1 1.2 0.4 2.4 0.7 1.3 0.2 2.5 0.3 1.3 0.1 2.5 0 0.9-0.1 1.8-0.3 0.9-0.2 1.8-0.4 0.9-0.3 1.8-0.6 0.8-0.3 1.6-0.7 0.9-0.4 1.7-0.8 0.8-0.4 1.7-0.7 0.8-0.4 1.7-0.7 0.9-0.3 1.7-0.6 0.8-0.3 1.5-0.4 0.7-0.2 1.5-0.3 0.7-0.1 1.5-0.1 0.7 0 1.5 0.1 0.5 0.1 1 0.2 0.5 0.1 1 0.3 0.4 0.2 0.9 0.4 0.4 0.2 0.9 0.5 0.1 0.1 0.3 0.2 0.1 0.1 0.3 0.2 0.1 0.1 0.2 0.3 0.2 0.1 0.3 0.2z"/>
		<path id="Layer" class="s6" d="m532.1 209.8c0 0-0.2 0.1-0.7 0.3q-0.7 0.3-2 0.8-0.8 0.2-1.6 0.5-0.9 0.2-1.7 0.3-0.9 0.2-1.8 0.2-0.8 0.1-1.7 0.1-0.9 0-1.7-0.1-0.9-0.1-1.7-0.2-0.9-0.2-1.7-0.4-0.9-0.2-1.7-0.5c-1.7-0.5-2.8-0.8-2.8-0.8l0.8 0.2 2 0.6q0.8 0.2 1.7 0.4 0.8 0.2 1.7 0.4 0.8 0.1 1.7 0.2 0.8 0.1 1.7 0.1 0.9 0 1.7-0.1 0.9 0 1.7-0.2 0.9-0.1 1.7-0.3 0.9-0.2 1.7-0.5 1.3-0.4 2-0.7z"/>
		<path id="Layer" class="s6" d="m542.3 208.8l-0.3-0.2q-0.1-0.1-0.1-0.1-0.1-0.1-0.2-0.1-0.1-0.1-0.2-0.1-0.1-0.1-0.2-0.1-0.3-0.2-0.7-0.4-0.3-0.1-0.7-0.2-0.3-0.2-0.7-0.3-0.4-0.1-0.7-0.1-0.6-0.1-1.1-0.2-0.6-0.1-1.2-0.1-0.5 0-1.1 0-0.5 0-1.1 0.1c-1.7 0.2-3.5 0.5-5.5 0.9q-1.2 0.2-2.4 0.4-1.3 0.1-2.5 0.2-1.3 0-2.6-0.1-1.2 0-2.4-0.2c-2.6-0.4-4.2-0.8-4.2-0.8l1.2 0.2c0.7 0.2 1.7 0.3 3 0.5q1.2 0.2 2.5 0.2 1.2 0.1 2.5 0.1 1.2-0.1 2.5-0.2 1.2-0.2 2.5-0.4c1.9-0.4 3.7-0.7 5.4-0.9q0.6-0.1 1.1-0.1 0.6 0 1.2 0 0.5 0 1.1 0.1 0.6 0.1 1.1 0.2 0.4 0 0.8 0.1 0.3 0.1 0.7 0.3 0.4 0.1 0.7 0.2 0.4 0.2 0.7 0.4 0.1 0 0.2 0.1 0.1 0.1 0.2 0.2 0.2 0.1 0.3 0.2 0.1 0.1 0.2 0.1z"/>
		<path id="Layer" class="s3" d="m548.6 214q-0.3-0.4-0.6-0.8-0.4-0.4-0.7-0.8-0.4-0.4-0.7-0.7-0.4-0.4-0.8-0.7-0.4-0.3-0.9-0.7-0.4-0.3-0.9-0.5-0.5-0.3-1-0.5-0.5-0.2-1-0.4-0.7-0.2-1.3-0.3-0.7-0.1-1.4-0.1-0.6-0.1-1.3 0-0.7 0-1.3 0.1-0.7 0.1-1.3 0.3-0.7 0.2-1.3 0.5-0.7 0.2-1.3 0.5-0.6 0.3-1.1 0.7c-1.5 0.8-2.8 1.7-3.9 2.2q-0.4 0.2-0.7 0.3-0.4 0.2-0.7 0.3-0.4 0.1-0.8 0.2-0.4 0.1-0.7 0.2-0.1 0-0.2 0-0.1 0.1-0.2 0.1-0.1 0-0.2 0-0.1 0-0.2 0-0.3 0-0.3 0 0.5-0.1 1-0.2 0.4-0.2 0.9-0.4 0.5-0.1 1-0.3 0.4-0.2 0.9-0.5c1.1-0.5 2.4-1.4 3.8-2.2q0.6-0.4 1.2-0.8 0.6-0.3 1.3-0.5 0.6-0.3 1.3-0.5 0.7-0.2 1.4-0.3 1.2-0.3 2.5-0.2 1.3 0.1 2.5 0.4 1.2 0.3 2.4 0.9 1.1 0.6 2.1 1.5 0.2 0.2 0.5 0.5 0.3 0.3 0.5 0.6 0.3 0.2 0.5 0.5 0.2 0.4 0.5 0.7 0 0.1 0.1 0.2 0.1 0.1 0.1 0.2 0.1 0.1 0.2 0.3 0 0.1 0.1 0.2z"/>
		<path id="Layer" class="s3" d="m534.7 208.9q-0.7 0.3-1.5 0.6-0.7 0.2-1.5 0.4-0.8 0.1-1.5 0.2-0.8 0.1-1.6 0.2-0.8 0-1.6 0.1-0.8 0-1.5-0.1-0.8 0-1.6-0.2-0.8-0.1-1.5-0.3c0-0.2 2.7 0.2 6.2 0 3.4-0.2 6-1.1 6.1-0.9z"/>
		<path id="Layer" class="s6" d="m529.7 205.8l-1.1-0.4c-0.7-0.4-1.8-0.8-3.3-1.3q-1.5-0.6-3-1-1.6-0.5-3.1-0.8-1.6-0.4-3.2-0.6-1.6-0.2-3.2-0.2-1.1-0.1-2.3 0-1.1 0-2.2 0.2-1.1 0.1-2.1 0.3-1.1 0.3-2.2 0.6-1.2 0.4-2.4 0.9-1.2 0.5-2.3 1.1-1.1 0.7-2.1 1.4-1 0.8-1.9 1.7c-2.6 2.5-4.8 5.6-7.8 8.2q-0.6 0.5-1.2 0.9-0.6 0.5-1.3 0.8-0.6 0.4-1.3 0.6-0.7 0.3-1.5 0.5-0.7 0.2-1.5 0.2-0.8 0.1-1.5 0-0.8 0-1.6-0.1-0.7-0.2-1.5-0.5-0.7-0.2-1.4-0.5-0.7-0.3-1.4-0.7-0.7-0.4-1.3-0.8-0.6-0.5-1.2-0.9-0.6-0.5-1.1-1-0.6-0.6-1.1-1.1-0.5-0.6-1-1.1-0.5-0.6-0.9-1.2c-2.4-3.1-4.3-6.4-6.5-9.3q-0.8-1-1.6-2-0.8-1-1.7-1.9-0.8-0.9-1.8-1.8-0.9-0.9-1.9-1.8-0.8-0.7-1.7-1.3-0.9-0.7-1.8-1.3-1-0.6-2-1.1-1-0.5-2-0.9-1.5-0.7-3-1.1-1.6-0.4-3.2-0.5-1.6-0.2-3.2-0.1-1.6 0.1-3.2 0.4-0.4 0.1-0.9 0.2-0.4 0.2-0.8 0.3-0.4 0.1-0.8 0.3-0.4 0.1-0.8 0.3l-1.1 0.6 1-0.6q0.4-0.2 0.9-0.3 0.4-0.2 0.8-0.3 0.4-0.2 0.8-0.3 0.4-0.1 0.9-0.2 1.6-0.4 3.2-0.4 1.6-0.1 3.2 0 1.6 0.2 3.2 0.6 1.5 0.4 3 1 1.1 0.4 2.1 0.9 1 0.6 1.9 1.1 1 0.6 1.9 1.3 0.9 0.7 1.7 1.4 1 0.8 1.9 1.7 0.9 0.9 1.8 1.8 0.9 1 1.7 2 0.8 1 1.6 2c2.2 2.9 4.1 6.1 6.5 9.2q0.4 0.6 0.9 1.2 0.5 0.6 1 1.1 0.5 0.6 1.1 1.1 0.5 0.5 1.1 1 0.6 0.5 1.2 0.9 0.6 0.4 1.3 0.8 0.7 0.4 1.4 0.7 0.7 0.3 1.4 0.6 0.8 0.2 1.5 0.4 0.7 0.1 1.5 0.2 0.8 0 1.5-0.1 0.8 0 1.5-0.2 0.8-0.2 1.4-0.4 0.7-0.3 1.4-0.7 0.7-0.3 1.3-0.7 0.6-0.4 1.1-0.9c3-2.6 5.2-5.7 7.8-8.2q0.9-0.9 2-1.7 1-0.8 2.1-1.4 1.1-0.7 2.3-1.2 1.1-0.5 2.4-0.9 1-0.3 2.1-0.5 1.1-0.2 2.2-0.4 1.2-0.1 2.3-0.2 1.1 0 2.2 0 1.6 0.1 3.2 0.3 1.6 0.2 3.2 0.5 1.6 0.3 3.1 0.8 1.6 0.4 3.1 1c2.8 1.1 4.3 1.8 4.3 1.8z"/>
		<path id="Layer" class="s6" d="m480.7 208.8q-0.2 0-0.4 0-0.2 0-0.4 0-0.2 0-0.4-0.1-0.2 0-0.4 0-0.5-0.1-1.1-0.3-0.5-0.1-1-0.3-0.5-0.2-1-0.5-0.5-0.2-0.9-0.6-0.7-0.4-1.3-0.9-0.6-0.6-1.1-1.2-0.6-0.5-1.1-1.2-0.5-0.6-0.9-1.3-0.6-0.8-1.1-1.6-0.6-0.8-1.2-1.6-0.6-0.7-1.2-1.5-0.6-0.8-1.2-1.5-1.1-1.4-2.4-2.6-1.3-1.3-2.7-2.4-1.4-1.1-2.9-2-1.5-1-3-1.9-0.5-0.2-1-0.4-0.5-0.3-1-0.5-0.5-0.2-1-0.4-0.5-0.3-1-0.5l-1.4-0.5c0 0 0.5 0.2 1.5 0.5q0.5 0.2 1 0.4 0.5 0.2 1 0.5 0.5 0.2 1 0.4 0.5 0.2 0.9 0.5 1.6 0.8 3.1 1.8 1.5 1 2.9 2.1 1.4 1.1 2.7 2.3 1.3 1.2 2.4 2.6 0.7 0.7 1.3 1.5 0.6 0.8 1.1 1.6 0.6 0.8 1.2 1.6 0.5 0.8 1.1 1.6 0.4 0.7 0.9 1.3 0.5 0.6 1.1 1.2 0.5 0.6 1.1 1.1 0.6 0.5 1.3 1 0.4 0.3 0.9 0.6 0.4 0.2 0.9 0.4 0.5 0.3 1.1 0.4 0.5 0.2 1 0.3 0.1 0 0.3 0 0.1 0 0.3 0 0.1 0 0.3 0 0.1 0.1 0.3 0.1z"/>
		<path id="Layer" class="s6" d="m526.7 200.3q0 0-0.1 0 0-0.1 0-0.1-0.1 0-0.1 0-0.1 0-0.1-0.1-0.3-0.1-0.9-0.5-0.4-0.2-0.8-0.4-0.4-0.2-0.8-0.4-0.4-0.2-0.8-0.4-0.4-0.2-0.9-0.3-2.8-1.2-5.8-1.7-3-0.6-6-0.5-3 0.1-6 0.9-2.9 0.7-5.7 2-0.4 0.2-0.8 0.4-0.4 0.2-0.8 0.4-0.4 0.3-0.8 0.5-0.4 0.2-0.8 0.5-0.5 0.3-0.8 0.5l-0.3 0.2c0 0 0.4-0.3 1.1-0.8q0.4-0.2 0.8-0.5 0.4-0.2 0.8-0.4 0.4-0.2 0.8-0.5 0.4-0.2 0.8-0.4 2.7-1.3 5.7-2 3-0.8 6-0.9 3-0.1 6 0.5 3 0.5 5.9 1.7 0.4 0.2 0.8 0.4 0.4 0.1 0.8 0.3 0.5 0.2 0.9 0.5 0.4 0.2 0.8 0.4c0.7 0.4 1.1 0.7 1.1 0.7z"/>
		<path id="Layer" class="s6" d="m506.4 204.8q0 0-0.1-0.4-0.2-0.4-0.4-1.1-0.1-0.4-0.3-0.9-0.1-0.4-0.3-0.8-0.2-0.5-0.4-0.9-0.2-0.4-0.4-0.8-0.2-0.4-0.4-0.8-0.2-0.5-0.5-0.9-0.2-0.4-0.5-0.7-0.2-0.4-0.5-0.8-0.4-0.6-0.6-0.9-0.3-0.3-0.3-0.4 0.2 0.2 0.3 0.3 0.1 0.2 0.2 0.3 0.2 0.2 0.3 0.3 0.1 0.2 0.2 0.3 0.5 0.8 1 1.6 0.5 0.8 0.9 1.6 0.4 0.9 0.8 1.7 0.3 0.9 0.6 1.8 0.1 0.2 0.1 0.3 0.1 0.2 0.1 0.4 0.1 0.2 0.1 0.4 0 0.2 0.1 0.4z"/>
		<path id="Layer" class="s6" d="m517 195.5c0 0 0.1 0.5 0.1 1.4q0 0.5 0 0.9 0 0.5-0.1 0.9 0 0.4 0 0.9-0.1 0.4-0.2 0.8 0 0.5-0.1 0.9-0.1 0.4-0.2 0.9-0.1 0.4-0.2 0.8-0.1 0.5-0.2 0.9c-0.3 0.8-0.5 1.3-0.5 1.3 0 0 0-0.1 0.1-0.3 0.1-0.3 0.2-0.7 0.3-1q0.1-0.4 0.2-0.9 0.1-0.4 0.2-0.8 0.1-0.5 0.2-0.9 0.1-0.4 0.1-0.9 0.1-0.4 0.1-0.8 0.1-0.5 0.1-0.9 0.1-0.4 0.1-0.9 0-0.4 0-0.9 0-0.5 0-1c0-0.4 0-0.4 0-0.4z"/>
		<path id="Layer" class="s6" d="m494 212.4q-0.2-0.1-0.3-0.1-0.1-0.1-0.3-0.2-0.1-0.1-0.3-0.2-0.1-0.1-0.3-0.2-0.3-0.3-0.6-0.5-0.4-0.3-0.7-0.5-0.3-0.3-0.6-0.6-0.3-0.3-0.6-0.6-0.3-0.3-0.6-0.6-0.3-0.3-0.6-0.6-0.2-0.3-0.5-0.6-0.3-0.4-0.5-0.7-0.1-0.1-0.2-0.3-0.1-0.1-0.2-0.3-0.1-0.1-0.2-0.3-0.1-0.1-0.1-0.3c-0.1-0.1 0 0.1 0.2 0.3q0.2 0.3 0.6 0.9 0.2 0.3 0.5 0.6 0.2 0.4 0.5 0.7 0.3 0.3 0.5 0.6 0.3 0.3 0.6 0.6 0.3 0.3 0.6 0.6 0.3 0.3 0.6 0.5 0.3 0.3 0.7 0.6 0.3 0.2 0.6 0.5l0.9 0.6z"/>
		<path id="Layer" class="s6" d="m478.5 209.3q0-0.1 0-0.2-0.1-0.2-0.1-0.3 0-0.1-0.1-0.2 0-0.2 0-0.3-0.1-0.3-0.1-0.6 0-0.3 0-0.7-0.1-0.3-0.1-0.6 0-0.3 0.1-0.7 0-0.3 0-0.6 0.1-0.3 0.1-0.6 0.1-0.4 0.1-0.7 0.1-0.3 0.2-0.6 0-0.1 0.1-0.2 0-0.2 0.1-0.3 0-0.1 0.1-0.2 0-0.2 0.1-0.3 0 0 0 0.1-0.1 0-0.1 0.1 0 0 0 0 0 0.1 0 0.1-0.1 0.2-0.2 0.7-0.1 0.3-0.2 0.7 0 0.3-0.1 0.6 0 0.3-0.1 0.6 0 0.3 0 0.7-0.1 0.3-0.1 0.6 0 0.3 0 0.6 0.1 0.4 0.1 0.7 0 0.3 0.1 0.6 0 0.5 0.1 0.8 0 0 0 0 0 0.1 0 0.1 0 0 0 0.1 0 0 0 0z"/>
		<path id="Layer" class="s6" d="m478.5 222.3q-0.1-0.2-0.2-0.4-0.1-0.2-0.2-0.4-0.1-0.2-0.2-0.4-0.1-0.2-0.2-0.4-0.2-0.5-0.3-1.1-0.2-0.5-0.4-1-0.1-0.5-0.2-1-0.2-0.5-0.3-1.1-0.1-0.5-0.2-1-0.1-0.6-0.1-1.1-0.1-0.5-0.1-1.1 0-0.5 0-1.1-0.1-0.2-0.1-0.4 0.1-0.2 0.1-0.4 0-0.3 0-0.5 0-0.2 0-0.4v0.5q0 0.5 0 1.3 0 0.5 0.1 1.1 0 0.5 0.1 1 0 0.6 0.1 1.1 0.1 0.5 0.2 1.1 0.1 0.5 0.2 1 0.2 0.5 0.3 1 0.2 0.6 0.3 1.1 0.2 0.5 0.4 1 0.3 0.8 0.5 1.2z"/>
		<path id="Layer" class="s6" d="m490.2 201.4q0 0.1 0.1 0.2 0 0.1 0 0.2 0 0.1 0.1 0.2 0 0.1 0 0.2c0.2 0.4 0.4 0.7 0.4 0.7q-0.1 0-0.2-0.1 0-0.1-0.1-0.2-0.1-0.1-0.1-0.1 0-0.1-0.1-0.2 0-0.1 0-0.2-0.1-0.1-0.1-0.2 0-0.1 0-0.2 0-0.1 0-0.3z"/>
		<path id="Layer" class="s6" d="m470.7 197.7l-0.6 0.4q-0.7 0.3-1.8 1-1.4 0.8-2.8 1.8-1.3 1-2.5 2.1-1.3 1.2-2.4 2.4-1.1 1.2-2.1 2.5c-0.6 0.7-1 1.3-1.2 1.7-0.3 0.4-0.4 0.6-0.4 0.6q0.1-0.3 0.3-0.6 0.2-0.3 0.4-0.6 0.2-0.3 0.4-0.5 0.2-0.3 0.4-0.6 1-1.3 2.1-2.6 1.2-1.2 2.4-2.3 1.2-1.2 2.6-2.1 1.3-1 2.8-1.9 0.3-0.2 0.6-0.3 0.3-0.2 0.6-0.4 0.3-0.1 0.6-0.3 0.3-0.1 0.6-0.3z"/>
		<path id="Layer" class="s6" d="m458.7 187.7l-0.6 0.1c-0.5 0.1-1 0.3-1.7 0.5q-0.7 0.2-1.4 0.4-0.7 0.2-1.4 0.5-0.7 0.2-1.3 0.5-0.7 0.3-1.4 0.6-0.6 0.3-1.3 0.6-0.6 0.3-1.2 0.7-0.6 0.3-1.3 0.7-0.6 0.4-1.2 0.8c-0.6 0.4-1.1 0.8-1.4 1l-0.5 0.4c0 0 0.7-0.6 1.9-1.5q0.6-0.4 1.2-0.8 0.6-0.4 1.2-0.7 0.7-0.4 1.3-0.7 0.6-0.4 1.3-0.7 0.7-0.3 1.3-0.5 0.7-0.3 1.4-0.6 0.7-0.2 1.4-0.4 0.6-0.3 1.3-0.5c1.5-0.3 2.4-0.4 2.4-0.4z"/>
		<path id="Layer" class="s6" d="m540.3 205.3q0 0.1 0 0.2 0 0 0 0.1-0.1 0.1-0.1 0.2 0 0 0 0.1 0 0.1 0 0.2-0.1 0-0.1 0.1 0 0.1 0 0.2-0.1 0-0.1 0.1 0-0.1 0-0.1 0-0.1 0-0.2 0-0.1 0-0.2 0.1 0 0.1-0.1 0-0.1 0-0.2 0 0 0.1-0.1 0-0.1 0-0.2 0.1 0 0.1-0.1z"/>
		<path id="Layer" class="s2" d="m585.7 204.8c0 0 4.5 1 6.4 1.4 0.7 0.1 1.3 0 1.9 0.2q1.1 0.1 2.1 0.2 1.1 0.1 2.1 0.1 1.1-0.1 2.1-0.2 1.1-0.1 2.1-0.3c1.9-0.7 2 1.8-0.1 2.8q-0.4 0.2-0.8 0.4-0.4 0.2-0.8 0.3-0.4 0.2-0.8 0.3-0.5 0.1-0.9 0.2l5 4q0.1 0 0.2 0.1 0 0.1 0.1 0.2 0.1 0.1 0.1 0.3 0.1 0.1 0.1 0.2l1.2 8.8q0.1 0.3 0.1 0.5-0.1 0.3-0.2 0.6-0.2 0.2-0.4 0.4-0.2 0.2-0.5 0.2-0.1 0.1-0.2 0.1-0.2 0-0.3 0-0.2-0.1-0.3-0.2-0.1-0.1-0.2-0.2l0.2 1.2c0 0.4 0 0.8-0.3 1.1-0.2 0.4-0.6 0.6-1 0.7-0.4 0-0.8-0.1-1.1-0.3-0.4-0.2-0.6-0.6-0.7-1q0 0 0 0 0 0 0 0 0-0.1 0-0.1 0 0 0 0l-1.7 1c0 0-1.2 1.2-2.4-0.4-1-1.4-4.2-6.9-4.2-6.9 0 0-13.1-5.6-13-7.8z"/>
		<path id="Layer" class="s8" d="m600.9 226.9q-0.1-0.3-0.2-0.5 0-0.3-0.1-0.6 0-0.2 0-0.5-0.1-0.3-0.1-0.5c-0.2-1.3-0.6-3.2-0.8-5.2-0.2-1-0.4-1.9-0.7-2.7q0-0.1-0.1-0.3-0.1-0.1-0.2-0.2 0-0.1-0.2-0.2-0.1-0.1-0.2-0.1l-0.9-0.6q-0.2-0.1-0.5-0.3-0.2-0.1-0.4-0.3-0.2-0.1-0.4-0.3-0.3-0.2-0.5-0.4 0.3 0.1 0.6 0.2 0.2 0.1 0.5 0.2 0.2 0.2 0.5 0.3 0.2 0.1 0.4 0.3l1 0.5q0.1 0.1 0.3 0.2 0.1 0.1 0.2 0.2 0.2 0.1 0.3 0.3 0.1 0.1 0.1 0.3 0.1 0.3 0.2 0.7 0.1 0.4 0.2 0.7 0.1 0.4 0.2 0.7 0.1 0.4 0.1 0.7c0.3 2 0.6 3.9 0.7 5.2q0.1 0.3 0.1 0.5 0 0.3 0 0.6 0 0.3-0.1 0.5 0 0.3 0 0.6z"/>
		<path id="Layer" class="s8" d="m603.8 225.2c-0.2 0-0.6-3.2-1.4-7q0-0.3-0.1-0.7 0-0.3-0.2-0.6-0.1-0.3-0.2-0.6-0.1-0.3-0.3-0.6-0.2-0.2-0.4-0.4-0.2-0.2-0.4-0.4-0.2-0.2-0.4-0.4-0.2-0.1-0.4-0.3-0.2-0.1-0.3-0.2-0.2-0.2-0.3-0.3-0.2-0.1-0.3-0.2-0.2-0.1-0.4-0.2c-0.3-0.1-0.5-0.2-0.5-0.2 0-0.1 0.3-0.1 0.6 0q0.2 0.1 0.4 0.2 0.2 0.1 0.3 0.2 0.2 0.1 0.4 0.2 0.1 0.1 0.3 0.2 0.2 0.2 0.5 0.3 0.2 0.2 0.4 0.4 0.2 0.2 0.4 0.4 0.2 0.2 0.4 0.4 0.2 0.3 0.4 0.6 0.2 0.3 0.3 0.7 0.1 0.3 0.2 0.7 0.1 0.3 0.1 0.7 0.2 0.6 0.3 1.2 0.1 0.6 0.2 1.3 0.1 0.6 0.2 1.2 0 0.6 0.1 1.3 0 0.2 0.1 0.5 0 0.3 0 0.5 0 0.3 0 0.6 0 0.2 0 0.5z"/>
		<path id="Layer" class="s8" d="m593 216.9q0.2 0 0.5 0.1 0.2 0.1 0.4 0.2 0.2 0.1 0.4 0.2 0.2 0.1 0.4 0.3l0.9 0.4q0.1 0.1 0.2 0.2 0.2 0 0.3 0.1 0.1 0.1 0.2 0.2 0.2 0.1 0.3 0.2 0.1 0.2 0.1 0.3 0.1 0.1 0.2 0.3 0.1 0.1 0.1 0.3 0.1 0.1 0.1 0.3 0.2 0.6 0.4 1.2 0.3 0.8 0.5 1.6 0.3 0.8 0.5 1.5 0.2 0.8 0.3 1.6 0.2 0.8 0.4 1.6-0.4-0.7-0.7-1.5-0.3-0.7-0.5-1.5-0.3-0.8-0.5-1.5-0.3-0.8-0.5-1.6l-0.4-1.2q0-0.2 0-0.3-0.1-0.1-0.1-0.3-0.1-0.1-0.2-0.2 0-0.1-0.1-0.2-0.1-0.1-0.2-0.2-0.1-0.1-0.2-0.2-0.1-0.1-0.2-0.1-0.1-0.1-0.2-0.2l-0.8-0.5q-0.2-0.1-0.4-0.2-0.2-0.2-0.4-0.3-0.2-0.1-0.4-0.3-0.2-0.2-0.4-0.3z"/>
		<path id="Layer" class="s8" d="m593.4 207.3c0-0.2 1.9 0.6 4 1.8 2 1.2 3.6 2.5 3.5 2.6-0.1 0.1-1.7-1-3.8-2.2l-2.7-1.5q-0.1-0.1-0.2-0.1-0.2-0.1-0.3-0.2-0.2-0.1-0.3-0.2-0.1-0.1-0.2-0.2z"/>
	</g>
</svg>