<svg version="1.2" xmlns="http://www.w3.org/2000/svg" viewBox="0 0 1920 1080" width="1920" height="1080">
	<title>prueba-svg</title>
	<style>
		.s0 { fill: #f5f5f5 } 
	</style>
	<g id="freepik--background-complete--inject-9">
		<path id="Layer" class="s0" d="m375.4 539.8c-0.3-1.6 0.9-3.2 2.5-4q0.6-0.2 1.2-0.3 0.6-0.2 1.2-0.3 0.7-0.1 1.3-0.1 0.6-0.1 1.3-0.1 0.6 0.1 1.2 0 0.7-0.1 1.3-0.3 0.6-0.1 1.2-0.4 0.5-0.2 1.1-0.6c1.4-1 2.2-2.7 3.7-3.6 2-1.1 4.5-0.2 6.8-0.4 2.7-0.2 5-1.7 7.4-2.9 2.4-1.2 5.2-2 7.7-1 3.2 1.3 4.6 5.7 8 6.9 1.5 0.5 3.2 0.3 4.8 0.4 3.5 0.3 8.1 2.9 7.6 6.2z"/>
		<path id="Layer copy 2" class="s0" d="m841.4 569.8c-0.3-1.6 0.9-3.2 2.5-4q0.6-0.2 1.2-0.3 0.6-0.2 1.2-0.3 0.7-0.1 1.3-0.1 0.6-0.1 1.3-0.1 0.6 0.1 1.2 0 0.7-0.1 1.3-0.3 0.6-0.1 1.2-0.4 0.5-0.2 1.1-0.6c1.4-1 2.2-2.7 3.7-3.6 2-1.1 4.5-0.2 6.8-0.4 2.7-0.2 5-1.7 7.4-2.9 2.4-1.2 5.2-2 7.7-1 3.2 1.3 4.6 5.7 8 6.9 1.5 0.5 3.2 0.3 4.8 0.4 3.5 0.3 8.1 2.9 7.6 6.2z"/>
		<path id="Layer copy" class="s0" d="m110.4 968.8c-0.3-1.6 0.9-3.2 2.5-4q0.6-0.2 1.2-0.3 0.6-0.2 1.2-0.3 0.7-0.1 1.3-0.1 0.6-0.1 1.3-0.1 0.6 0.1 1.2 0 0.7-0.1 1.3-0.3 0.6-0.1 1.2-0.4 0.5-0.2 1.1-0.6c1.4-1 2.2-2.7 3.7-3.6 2-1.1 4.5-0.2 6.8-0.4 2.7-0.2 5-1.7 7.4-2.9 2.4-1.2 5.2-2 7.7-1 3.2 1.3 4.6 5.7 8 6.9 1.5 0.5 3.2 0.3 4.8 0.4 3.5 0.3 8.1 2.9 7.6 6.2z"/>
		<path id="Layer copy 9" class="s0" d="m732.4 726.8c-0.3-1.6 0.9-3.2 2.5-4q0.6-0.2 1.2-0.3 0.6-0.2 1.2-0.3 0.7-0.1 1.3-0.1 0.6-0.1 1.3-0.1 0.6 0.1 1.2 0 0.7-0.1 1.3-0.3 0.6-0.1 1.2-0.4 0.5-0.2 1.1-0.6c1.4-1 2.2-2.7 3.7-3.6 2-1.1 4.5-0.2 6.8-0.4 2.7-0.2 5-1.7 7.4-2.9 2.4-1.2 5.2-2 7.7-1 3.2 1.3 4.6 5.7 8 6.9 1.5 0.5 3.2 0.3 4.8 0.4 3.5 0.3 8.1 2.9 7.6 6.2z"/>
		<path id="Layer" class="s0" d="m997.1 297.8c-0.5-2.7 1.6-5.4 4.1-6.5 2.5-1.2 5.4-1.2 8.2-1.4 2.8-0.1 5.7-0.4 7.9-2.1 2.3-1.7 3.6-4.6 6.1-5.9 3.3-1.9 7.4-0.5 11.3-0.7 4.3-0.3 8.2-2.8 12.1-4.8 3.9-1.9 8.6-3.4 12.6-1.7 5.4 2.2 7.6 9.4 13.1 11.3 2.6 0.9 5.4 0.5 8 0.7 5.7 0.5 13.2 4.8 12.5 10.2z"/>
		<path id="Layer copy 8" class="s0" d="m1384.1 999.8c-0.5-2.7 1.6-5.4 4.1-6.5 2.6-1.2 5.4-1.2 8.2-1.4 2.8-0.1 5.7-0.4 7.9-2.1 2.3-1.7 3.6-4.6 6.1-5.9 3.3-1.9 7.5-0.5 11.3-0.7 4.3-0.3 8.2-2.8 12.1-4.8 3.9-1.9 8.6-3.4 12.6-1.7 5.4 2.2 7.6 9.4 13.2 11.3 2.5 0.9 5.3 0.5 8 0.7 5.6 0.5 13.1 4.8 12.4 10.2z"/>
		<path id="Layer copy 7" class="s0" d="m1596.1 850.8c-0.5-2.7 1.6-5.4 4.1-6.5 2.6-1.2 5.4-1.2 8.2-1.4 2.8-0.1 5.7-0.4 7.9-2.1 2.3-1.7 3.6-4.6 6.1-5.9 3.3-1.9 7.5-0.5 11.3-0.7 4.3-0.3 8.2-2.8 12.1-4.8 3.9-1.9 8.6-3.4 12.6-1.7 5.4 2.2 7.6 9.4 13.2 11.3 2.5 0.9 5.3 0.5 8 0.7 5.6 0.5 13.1 4.8 12.4 10.2z"/>
		<path id="Layer copy 3" class="s0" d="m1647.1 248.8c-0.5-2.7 1.6-5.4 4.1-6.5 2.6-1.2 5.4-1.2 8.2-1.4 2.8-0.1 5.7-0.4 7.9-2.1 2.3-1.7 3.6-4.6 6.1-5.9 3.3-1.9 7.5-0.5 11.3-0.7 4.3-0.3 8.2-2.8 12.1-4.8 3.9-1.9 8.6-3.4 12.6-1.7 5.4 2.2 7.6 9.4 13.2 11.3 2.5 0.9 5.3 0.5 8 0.7 5.6 0.5 13.1 4.8 12.4 10.2z"/>
	</g>
</svg>