<svg version="1.2" xmlns="http://www.w3.org/2000/svg" viewBox="0 0 1920 1080" width="1920" height="1080">
	<title>Nuevo proyecto</title>
	<style>
		.s0 { fill: #ebebeb } 
		.s1 { fill: #f5f5f5 } 
	</style>
	<path id="Layer" class="s0" d="m355.9 876.1c-0.7-4.1 2.4-8.3 6.3-10 3.8-1.7 8.2-1.8 12.5-2 4.2-0.2 8.6-0.7 12.1-3.3 3.5-2.5 5.5-6.9 9.2-9 5.1-2.9 11.4-0.7 17.3-1.1 6.6-0.4 12.5-4.2 18.5-7.2 6-3 13.1-5.3 19.3-2.7 8.2 3.4 11.6 14.4 20.1 17.3 3.9 1.4 8.1 0.7 12.3 1.1 8.6 0.7 20.1 7.4 19 15.5z"/>
	<path id="Layer copy 6" class="s0" d="m1600.9 277.1c-0.7-4.1 2.4-8.3 6.3-10 3.8-1.7 8.2-1.8 12.4-2 4.3-0.2 8.7-0.7 12.2-3.3 3.5-2.5 5.4-6.9 9.2-9 5.1-2.9 11.4-0.7 17.2-1.1 6.7-0.4 12.6-4.2 18.6-7.2 6-3 13.1-5.3 19.3-2.7 8.2 3.4 11.6 14.4 20.1 17.3 3.9 1.4 8.1 0.7 12.3 1.1 8.6 0.7 20.1 7.4 19 15.5z"/>
	<path id="Layer copy 5" class="s0" d="m1266.9 648.1c-0.7-4.1 2.4-8.3 6.3-10 3.8-1.7 8.2-1.8 12.4-2 4.3-0.2 8.7-0.7 12.2-3.3 3.5-2.5 5.4-6.9 9.2-9 5.1-2.9 11.4-0.7 17.2-1.1 6.7-0.4 12.6-4.2 18.6-7.2 6-3 13.1-5.3 19.3-2.7 8.2 3.4 11.6 14.4 20.1 17.3 3.9 1.4 8.1 0.7 12.3 1.1 8.6 0.7 20.1 7.4 19 15.5z"/>
	<path id="Layer" class="s0" d="m312.7 326.5c-0.5-2.6 1.5-5.2 4-6.3 2.4-1.1 5.1-1.1 7.8-1.3 2.6-0.1 5.4-0.4 7.6-2 2.2-1.7 3.4-4.4 5.8-5.7 3.2-1.8 7.1-0.4 10.8-0.7 4.2-0.3 7.9-2.6 11.6-4.5 3.8-1.9 8.2-3.4 12.1-1.7 5.1 2.2 7.3 9 12.6 10.9 2.4 0.8 5.1 0.4 7.7 0.6 5.4 0.5 12.6 4.7 11.9 9.8z"/>
	<path id="Layer copy 4" class="s0" d="m1590.7 937.5c-0.5-2.6 1.5-5.2 4-6.3 2.4-1.1 5.1-1.1 7.8-1.3 2.6-0.1 5.4-0.4 7.6-2 2.2-1.7 3.4-4.4 5.8-5.7 3.2-1.8 7.1-0.4 10.8-0.7 4.2-0.3 7.9-2.6 11.6-4.5 3.8-1.9 8.2-3.4 12.1-1.7 5.1 2.2 7.3 9 12.6 10.9 2.4 0.8 5.1 0.4 7.7 0.6 5.4 0.5 12.6 4.7 11.9 9.8z"/>
	<path id="Layer" class="s1" d="m647.3 527.5c-0.5-2.8 1.6-5.4 4.1-6.6 2.6-1.1 5.4-1.2 8.2-1.3 2.8-0.2 5.6-0.5 7.9-2.2 2.3-1.6 3.6-4.5 6.1-5.9 3.3-1.8 7.5-0.4 11.3-0.7 4.3-0.3 8.2-2.7 12.1-4.7 3.9-2 8.6-3.5 12.6-1.8 5.4 2.3 7.6 9.4 13.2 11.4 2.5 0.9 5.3 0.5 8 0.7 5.7 0.4 13.2 4.8 12.5 10.1z"/>
</svg>